<svg width="14" height="24" viewBox="0 0 14 24" fill="none" xmlns="http://www.w3.org/2000/svg">
<g clip-path="url(#clip0_346_12233)">
<path fill-rule="evenodd" clip-rule="evenodd" d="M6.99996 1C10.8627 1 13.9999 4.1162 13.9999 7.9535C13.9999 9.13946 13.6956 10.2326 13.2041 11.2093L8.54523 19.9303L7.72575 21.4418C7.32776 22.1861 6.67226 22.1861 6.27429 21.4418L5.0335 19.1162L0.819477 11.2092C0.304396 10.2325 0 9.1395 0 7.9535C0 4.11624 3.13723 1 6.99996 1ZM3 8C3 10.2091 4.79086 12 7 12C9.20914 12 11 10.2091 11 8C11 5.79086 9.20914 4 7 4C4.79086 4 3 5.79086 3 8Z" fill="white"/>
</g>
<defs>
<clipPath id="clip0_346_12233">
<rect width="14" height="24" fill="white"/>
</clipPath>
</defs>
</svg>
