<svg width="65" height="56" viewBox="0 0 65 56" fill="none" xmlns="http://www.w3.org/2000/svg">
<path fill-rule="evenodd" clip-rule="evenodd" d="M26.621 14.6074C26.621 16.5998 24.9749 18.2149 22.9443 18.2149C20.9137 18.2149 19.2676 16.5998 19.2676 14.6074C19.2676 12.6151 20.9137 11 22.9443 11C24.9749 11 26.621 12.6151 26.621 14.6074ZM61.4612 20.0608C61.5112 20.066 61.5554 20.0793 61.594 20.1002C61.6355 20.1213 61.6653 20.1488 61.6829 20.1825C61.7006 20.2162 61.7095 20.2536 61.7095 20.2942C61.7095 20.3483 61.701 20.3942 61.6841 20.4318C61.6671 20.4694 61.6407 20.501 61.6054 20.5267C61.5701 20.5535 61.5233 20.5728 61.4646 20.584C61.4062 20.5955 61.3362 20.601 61.2548 20.601H61.1367V20.0527H61.2915C61.3546 20.0527 61.4112 20.0555 61.4612 20.0608ZM61.4406 19.1973C61.0113 19.1973 60.6445 19.3486 60.3406 19.6513C60.0366 19.9542 59.8848 20.3161 59.8848 20.7375C59.8848 21.159 60.0366 21.5211 60.3406 21.8237C60.6445 22.1264 61.0113 22.2778 61.4406 22.2778C61.8701 22.2778 62.237 22.1264 62.5408 21.8237C62.8449 21.5211 62.9967 21.159 62.9967 20.7375C62.9967 20.3161 62.8449 19.9542 62.5408 19.6513C62.237 19.3486 61.8701 19.1973 61.4406 19.1973ZM61.9366 21.6662L61.3344 20.9503H61.1359V21.6662H60.6465V19.716H61.4014C61.5413 19.716 61.6539 19.7212 61.7387 19.7318C61.8231 19.7423 61.907 19.7696 61.9903 19.8134C62.0811 19.8632 62.1478 19.9235 62.19 19.9946C62.2324 20.0656 62.2535 20.1539 62.2535 20.2596C62.2535 20.4016 62.2127 20.5185 62.131 20.6107C62.0496 20.7029 61.9435 20.7747 61.8123 20.826L62.5626 21.6664H61.9366V21.6662ZM30.2115 17.2854H63.1775C64.1841 17.2854 65.0002 18.0864 65 19.0737V38.3492C65 39.3371 64.1841 40.2504 63.1773 40.2504H1.82298C0.816329 40.2504 0 39.3371 0 38.3492V19.0737C0 18.0864 0.816329 17.2854 1.82298 17.2852H15.5761C18.608 17.2852 21.1977 19.1746 21.1977 22.5608V22.6644C21.1974 22.6759 21.1973 22.6874 21.1972 22.6984C21.1972 22.7043 21.1971 22.7101 21.1971 22.7156V34.6569C21.1971 34.7899 21.3069 34.8984 21.4426 34.8984H21.4429H24.442C24.5713 34.8984 24.6761 34.7998 24.6859 34.6755V22.7098V22.6498V22.5198C24.6859 19.1749 27.2968 17.2854 30.2115 17.2854ZM18.5834 32.5925C18.5862 32.5466 18.5878 32.5003 18.5878 32.4537H18.5875V22.9087C18.5875 22.7754 18.4775 22.6672 18.342 22.6672H18.3417H15.3426C15.2067 22.6672 15.0964 22.7754 15.0964 22.9087V28.9905C15.0964 29.2419 14.8888 29.4457 14.6325 29.4457C14.5043 29.4457 14.3883 29.3946 14.3043 29.3123L14.3039 29.3127L8.25662 23.378L8.25548 23.379C7.80443 22.9371 7.18164 22.664 6.49418 22.664C6.45428 22.664 6.41507 22.6651 6.37585 22.667C6.36371 22.6674 6.35199 22.6683 6.34008 22.6692L6.33871 22.6693C6.33371 22.6696 6.32872 22.6699 6.32374 22.6703C6.30176 22.6717 6.27995 22.6732 6.25845 22.6752L6.21603 22.6794C6.1908 22.6821 6.16535 22.6851 6.14013 22.689C6.1266 22.6906 6.1133 22.6924 6.09977 22.6945C6.07088 22.6988 6.04244 22.7039 6.01401 22.7094C6.0096 22.7103 6.00514 22.711 6.0007 22.7118C5.9959 22.7127 5.99114 22.7135 5.98649 22.7144C5.94935 22.722 5.91311 22.7303 5.87688 22.7392C5.87102 22.7407 5.86522 22.7423 5.85946 22.7438C5.8544 22.7452 5.84936 22.7466 5.84432 22.7479C5.81864 22.7548 5.79319 22.7617 5.76819 22.7692C5.75963 22.7717 5.75132 22.7744 5.74296 22.777C5.73744 22.7788 5.73189 22.7806 5.72623 22.7823C5.70399 22.7894 5.6822 22.7968 5.66042 22.8043C5.64597 22.8094 5.63199 22.814 5.618 22.8192C5.59553 22.8277 5.57328 22.8362 5.55127 22.8449C5.54531 22.8474 5.5393 22.8499 5.53324 22.8523C5.5267 22.855 5.5201 22.8576 5.51343 22.8605C5.48041 22.874 5.44808 22.8885 5.41575 22.9036C5.40742 22.9073 5.39945 22.9115 5.39137 22.9157L5.38823 22.9174C5.36416 22.9291 5.34077 22.9408 5.31738 22.9527L5.27656 22.9747C5.25799 22.985 5.23964 22.9956 5.2213 23.0063C5.20897 23.0133 5.19682 23.0206 5.18484 23.0278L5.17934 23.0311C5.16437 23.0401 5.14972 23.0495 5.135 23.0589C5.13212 23.0607 5.12925 23.0625 5.12637 23.0644C5.11284 23.0731 5.09977 23.0816 5.08647 23.0905C5.06675 23.1036 5.04748 23.1171 5.02845 23.1309C5.02426 23.1339 5.02004 23.1368 5.01583 23.1397C5.00945 23.1441 5.00312 23.1485 4.99704 23.1531C4.99704 23.1531 4.99681 23.1533 4.99681 23.1536C4.96149 23.1792 4.92687 23.2065 4.89316 23.234C4.8904 23.2364 4.88766 23.2388 4.88492 23.2412C4.87904 23.2464 4.8732 23.2515 4.86725 23.2565C4.84226 23.2778 4.81749 23.2992 4.79364 23.3209L4.76337 23.3494C4.7409 23.3709 4.71912 23.3923 4.69756 23.4143C4.6877 23.4244 4.67807 23.4342 4.66844 23.4443C4.6462 23.4677 4.62464 23.4918 4.60309 23.5159C4.59529 23.5248 4.5875 23.5335 4.57993 23.5425C4.5226 23.6096 4.46895 23.6798 4.41919 23.7527C4.41487 23.759 4.41079 23.7655 4.40669 23.7719C4.40513 23.7744 4.40357 23.7769 4.40199 23.7793C4.38364 23.8071 4.36553 23.8348 4.34833 23.8635C4.34258 23.8727 4.3371 23.8822 4.33158 23.8918C4.32983 23.8948 4.32808 23.8978 4.32632 23.9009C4.31164 23.9265 4.29719 23.9525 4.28321 23.9786C4.27587 23.9921 4.26853 24.0061 4.26142 24.0199C4.24789 24.0462 4.23528 24.0728 4.2229 24.0999C4.22103 24.1039 4.21915 24.1079 4.21726 24.1119C4.21288 24.1211 4.20849 24.1304 4.20433 24.14C4.19057 24.1712 4.17796 24.2024 4.16557 24.234C4.16413 24.2376 4.16266 24.2411 4.16119 24.2447C4.15869 24.2507 4.15619 24.2566 4.15388 24.2627C4.13829 24.3044 4.12384 24.3464 4.11031 24.3888C4.10932 24.3921 4.10841 24.3955 4.1075 24.3988C4.10607 24.404 4.10465 24.4093 4.10297 24.4143C4.09265 24.4482 4.08279 24.4826 4.07431 24.5172C4.07197 24.5262 4.06988 24.5351 4.06779 24.5441C4.06639 24.55 4.065 24.556 4.06353 24.562C4.05688 24.5908 4.05023 24.6197 4.04473 24.6491C4.04152 24.6656 4.03854 24.6823 4.03579 24.6991C4.03051 24.7277 4.02638 24.7564 4.02249 24.7851L4.01607 24.8355C4.01263 24.8662 4.00987 24.8977 4.00735 24.9291C4.00698 24.9337 4.00656 24.9384 4.00614 24.9432C4.00526 24.953 4.00438 24.9629 4.00391 24.9729C4.00139 25.0185 3.99956 25.0646 3.99956 25.1116V34.6569C3.99956 34.7901 4.10962 34.8984 4.2456 34.8984L4.2495 34.8982H7.24103L7.24515 34.8984C7.3809 34.8984 7.49097 34.7904 7.49097 34.6569C7.49097 34.6558 7.49051 34.6551 7.49051 34.6539V28.5494C7.50243 28.3084 7.70491 28.1162 7.95348 28.1162C8.08189 28.1162 8.19792 28.1671 8.28185 28.2497L8.28253 28.249L14.3142 34.1676C14.7668 34.6195 15.3965 34.9004 16.0934 34.9004C16.1331 34.9004 16.1725 34.8993 16.2117 34.8975C16.2241 34.897 16.2365 34.8961 16.2491 34.8952C16.2759 34.8938 16.3027 34.8915 16.3291 34.8892C16.3433 34.8881 16.3573 34.8865 16.3715 34.8846C16.3968 34.8821 16.4224 34.8789 16.4472 34.8755C16.4543 34.8745 16.4613 34.8734 16.4683 34.8724C16.4748 34.8714 16.4813 34.8704 16.4878 34.8695C16.5162 34.8651 16.5451 34.8601 16.5733 34.8546C16.5784 34.8537 16.5835 34.8528 16.5886 34.8519C16.5928 34.8511 16.5969 34.8504 16.6011 34.8495C16.638 34.8422 16.6744 34.8337 16.7107 34.8248C16.7162 34.8234 16.7216 34.8219 16.7271 34.8204C16.7325 34.8189 16.738 34.8174 16.7435 34.8161C16.7687 34.8092 16.7944 34.8021 16.8194 34.795C16.8246 34.7933 16.8298 34.7917 16.8351 34.79C16.8438 34.7872 16.8525 34.7845 16.8611 34.7819L16.8725 34.7781C16.8908 34.7721 16.9089 34.7661 16.9271 34.7599L16.9339 34.7575C16.946 34.7533 16.9578 34.7492 16.9698 34.7447C16.9922 34.7367 17.014 34.728 17.0358 34.7193L17.0358 34.7193C17.0487 34.7142 17.0613 34.7092 17.0739 34.7039C17.1067 34.6904 17.1395 34.676 17.1718 34.6608C17.1749 34.6593 17.1779 34.6577 17.1809 34.6562C17.1871 34.6531 17.1932 34.65 17.1993 34.6471C17.2232 34.6356 17.2468 34.6237 17.2702 34.6115C17.2766 34.6081 17.2831 34.6046 17.2895 34.6011C17.2966 34.5973 17.3037 34.5933 17.3108 34.5895C17.3293 34.5792 17.3479 34.5689 17.3665 34.5581C17.376 34.5526 17.3856 34.5468 17.3951 34.5411C17.3995 34.5384 17.4039 34.5357 17.4082 34.5331C17.4232 34.5241 17.4378 34.5148 17.4525 34.5054L17.4612 34.4998C17.4745 34.4914 17.4878 34.4826 17.5011 34.4737C17.518 34.4627 17.5345 34.451 17.5508 34.4393L17.5589 34.4336C17.5694 34.426 17.5802 34.4189 17.5903 34.4111H17.591C17.6261 34.385 17.6607 34.3577 17.6942 34.3299C17.6994 34.3257 17.7043 34.3213 17.7093 34.3169C17.7129 34.3138 17.7166 34.3106 17.7203 34.3075C17.7451 34.2866 17.7698 34.2653 17.7939 34.2433L17.8242 34.2148C17.8467 34.1935 17.8684 34.1719 17.89 34.1499L17.9191 34.1201C17.9411 34.0967 17.9629 34.0726 17.9842 34.0486C17.9923 34.0399 17.9998 34.0311 18.0074 34.0222C18.0647 33.955 18.1186 33.8846 18.1684 33.8117C18.1741 33.803 18.1801 33.7938 18.1856 33.7851C18.2039 33.7578 18.222 33.7298 18.239 33.7012C18.2466 33.6888 18.2539 33.6762 18.261 33.6636C18.2759 33.6381 18.2901 33.6122 18.3044 33.5861C18.3117 33.5725 18.319 33.5588 18.3261 33.545C18.3394 33.5186 18.352 33.4918 18.3647 33.4648C18.3709 33.4512 18.3773 33.4379 18.3832 33.4246C18.3959 33.3962 18.4074 33.3674 18.4189 33.3383L18.422 33.3306L18.4335 33.302C18.449 33.2604 18.4637 33.2185 18.477 33.1758C18.4783 33.1721 18.4793 33.1683 18.4804 33.1645C18.4817 33.1598 18.483 33.1551 18.4846 33.1506C18.4947 33.1164 18.5043 33.082 18.5133 33.0474C18.5163 33.0359 18.5188 33.0241 18.5215 33.0125C18.5223 33.0093 18.523 33.0061 18.5238 33.0029C18.5251 32.9968 18.5265 32.9907 18.5279 32.9846C18.533 32.9616 18.5381 32.9386 18.5426 32.9158C18.5443 32.9072 18.5458 32.8985 18.5474 32.8898C18.5488 32.8818 18.5502 32.8738 18.5518 32.8658C18.5563 32.8412 18.5598 32.8167 18.5633 32.7921C18.5639 32.788 18.5645 32.7839 18.5651 32.7798C18.5661 32.7715 18.5673 32.7631 18.5684 32.7547C18.5695 32.7463 18.5707 32.738 18.5717 32.7296C18.5752 32.6986 18.5777 32.6677 18.5802 32.6365C18.5811 32.6216 18.5825 32.6072 18.5834 32.5925ZM29.915 34.9004C30.6119 34.9004 31.2413 34.6195 31.6942 34.1676L33.4204 32.4721L40.3122 25.7108C40.6984 25.3955 40.944 24.9201 40.944 24.3884C40.944 23.4384 40.1591 22.6681 39.1907 22.6681C38.6447 22.6681 38.1574 22.9128 37.8357 23.2966L31.7043 29.3125L31.7038 29.312C31.6199 29.3946 31.5037 29.4455 31.3755 29.4455C31.1194 29.4455 30.9116 29.2416 30.9116 28.9903V22.9087C30.9116 22.7754 30.8015 22.6672 30.6658 22.6672H27.6662C27.5305 22.6672 27.4204 22.7754 27.4204 22.9087V32.4537C27.4204 32.5003 27.4222 32.5466 27.425 32.5925C27.4257 32.6074 27.4273 32.6218 27.4282 32.6365C27.4307 32.6677 27.4333 32.6986 27.4369 32.7296C27.4385 32.7463 27.4408 32.7631 27.4433 32.7798C27.4475 32.8085 27.4518 32.8372 27.4569 32.8658C27.4596 32.8823 27.4626 32.8991 27.4658 32.9158C27.4715 32.9447 27.478 32.9738 27.4846 33.0029C27.4866 33.011 27.4884 33.0192 27.4903 33.0274C27.4918 33.0341 27.4934 33.0408 27.4952 33.0474C27.5039 33.0823 27.5137 33.1167 27.5241 33.1506C27.525 33.1538 27.5259 33.1571 27.5268 33.1604C27.5282 33.1656 27.5296 33.1708 27.5314 33.1758C27.5445 33.2185 27.5591 33.2604 27.5747 33.302C27.5784 33.3116 27.5823 33.321 27.5864 33.3306C27.5988 33.3623 27.6114 33.3937 27.6252 33.4246C27.628 33.431 27.631 33.4374 27.634 33.4437C27.6372 33.4506 27.6404 33.4576 27.6435 33.4648C27.6561 33.4918 27.669 33.5186 27.6825 33.545C27.6869 33.5532 27.6913 33.5614 27.6957 33.5697C27.6985 33.5752 27.7014 33.5806 27.7043 33.5861C27.7178 33.612 27.7325 33.6381 27.7474 33.6636C27.7509 33.6695 27.7543 33.6753 27.7576 33.6811C27.7615 33.6879 27.7653 33.6945 27.7694 33.7012C27.7866 33.7296 27.8047 33.7576 27.8228 33.7851L27.8246 33.7878C27.8295 33.7957 27.8347 33.8039 27.84 33.8117C27.8898 33.8846 27.9435 33.955 28.0008 34.0222C28.0086 34.0309 28.0164 34.0396 28.0242 34.0486C28.0455 34.0726 28.0671 34.0967 28.0895 34.1201C28.0987 34.1298 28.1083 34.1396 28.1178 34.1493L28.1184 34.1499C28.14 34.1719 28.1618 34.1935 28.1845 34.2148C28.1943 34.2242 28.2044 34.2339 28.2145 34.2433C28.2386 34.2653 28.2633 34.2866 28.2881 34.3075C28.2909 34.3099 28.2937 34.3123 28.2964 34.3147C28.3023 34.3199 28.3082 34.3251 28.314 34.3299C28.3477 34.3579 28.3821 34.385 28.4174 34.4111H28.4179C28.4246 34.4161 28.4313 34.4208 28.438 34.4255C28.4417 34.4282 28.4455 34.4308 28.4493 34.4336C28.4683 34.4471 28.4878 34.4606 28.5071 34.4737C28.5204 34.4826 28.5339 34.4914 28.5475 34.4998C28.5647 34.5111 28.5823 34.5223 28.6 34.5331C28.6058 34.5365 28.6116 34.54 28.6173 34.5435C28.6255 34.5484 28.6337 34.5534 28.6422 34.5581C28.6605 34.5689 28.6791 34.5792 28.6979 34.5895C28.7112 34.5968 28.7245 34.6044 28.7382 34.6115C28.7616 34.6234 28.7852 34.6356 28.8091 34.6471C28.8183 34.6514 28.8274 34.6562 28.8366 34.6608C28.8687 34.6757 28.9015 34.6904 28.9345 34.7039C28.9469 34.7092 28.9595 34.7142 28.9724 34.7193C28.9946 34.728 29.0164 34.7367 29.0389 34.7447C29.0487 34.7484 29.0586 34.7519 29.0685 34.7554C29.0728 34.7569 29.077 34.7584 29.0813 34.7599C29.1027 34.7673 29.1242 34.7743 29.1463 34.7816L29.1473 34.7819C29.157 34.7848 29.1667 34.7879 29.1765 34.791C29.1807 34.7924 29.1848 34.7937 29.1891 34.795C29.2062 34.7998 29.2237 34.8047 29.2411 34.8095C29.2491 34.8117 29.257 34.8139 29.265 34.8161C29.276 34.8188 29.287 34.822 29.298 34.8248C29.3342 34.8335 29.3709 34.842 29.4076 34.8495C29.4168 34.8514 29.4257 34.853 29.4349 34.8546L29.4385 34.8553C29.4659 34.8603 29.4932 34.8653 29.5209 34.8695C29.5273 34.8704 29.5337 34.8714 29.5401 34.8724C29.547 34.8734 29.554 34.8745 29.561 34.8755C29.5862 34.8789 29.6117 34.8821 29.6371 34.8846C29.6511 34.8865 29.6651 34.8881 29.6793 34.8892L29.681 34.8894C29.7073 34.8916 29.7333 34.8938 29.7593 34.8952L29.7608 34.8953C29.7729 34.8962 29.7848 34.897 29.7969 34.8975C29.8359 34.8993 29.8754 34.9004 29.915 34.9004ZM43.3613 32.202C43.3613 33.0126 44.0309 33.67 44.8573 33.67C45.6837 33.67 46.3535 33.0126 46.3535 32.202C46.3535 31.3911 45.6835 30.734 44.8573 30.734C44.0311 30.734 43.3613 31.3911 43.3613 32.202ZM50.0722 34.9007C50.2082 34.9007 50.3182 34.7924 50.3182 34.6592H50.3194V25.1144C50.3194 25.0678 50.3175 25.0213 50.315 24.9756C50.3144 24.9657 50.3136 24.9559 50.3128 24.9461C50.3124 24.9413 50.312 24.9365 50.3116 24.9316C50.3091 24.9002 50.3065 24.8692 50.3031 24.8383C50.3011 24.8218 50.2988 24.8053 50.2965 24.7888L50.2964 24.788C50.2925 24.7594 50.2882 24.7307 50.2834 24.7021C50.2802 24.6853 50.2774 24.6686 50.274 24.6521C50.2685 24.6227 50.2623 24.5938 50.2552 24.5652C50.2517 24.5503 50.2485 24.5351 50.2446 24.5204C50.2361 24.4856 50.2263 24.4514 50.216 24.4173C50.2134 24.409 50.2114 24.4005 50.2086 24.392C50.1955 24.3494 50.1809 24.3074 50.1651 24.2659C50.1632 24.2611 50.1613 24.2563 50.1593 24.2516C50.1574 24.2468 50.1554 24.2421 50.1536 24.2373C50.1412 24.2056 50.1284 24.1742 50.1146 24.1432C50.111 24.1348 50.1071 24.1265 50.1031 24.1181C50.1007 24.1131 50.0983 24.1082 50.096 24.1031C50.0836 24.0761 50.071 24.0492 50.0575 24.0231L50.0359 23.9818C50.0232 23.9575 50.0094 23.9335 49.9958 23.9096L49.9926 23.9041L49.9706 23.8665C49.9534 23.838 49.9355 23.8101 49.9172 23.7825C49.913 23.776 49.9088 23.7695 49.9045 23.763C49.9029 23.7606 49.9013 23.7583 49.8997 23.7559C49.85 23.6828 49.7963 23.6126 49.739 23.5454C49.7312 23.5367 49.7234 23.5282 49.7158 23.5193C49.6945 23.495 49.673 23.4711 49.6505 23.4478C49.6411 23.4374 49.631 23.4276 49.6214 23.4175C49.5998 23.3955 49.578 23.3739 49.5556 23.3528L49.5255 23.3242C49.5014 23.3021 49.4767 23.2808 49.4519 23.26C49.4486 23.2572 49.4454 23.2544 49.4422 23.2516C49.4367 23.2468 49.4312 23.242 49.4255 23.2375C49.3921 23.2095 49.3574 23.1827 49.3226 23.157C49.3223 23.1565 49.3221 23.1565 49.3219 23.1565C49.315 23.1512 49.3078 23.1463 49.3007 23.1413C49.2974 23.139 49.294 23.1366 49.2907 23.1343C49.2859 23.1309 49.281 23.1275 49.2762 23.124C49.2618 23.1139 49.2475 23.1037 49.2327 23.0939C49.2194 23.085 49.2061 23.0765 49.1926 23.068C49.1882 23.0653 49.1839 23.0625 49.1796 23.0597C49.1664 23.0513 49.1533 23.0429 49.1398 23.0348C49.1363 23.0327 49.1328 23.0305 49.1293 23.0284C49.1188 23.022 49.1083 23.0156 49.0979 23.0096C49.0795 22.9988 49.0609 22.9885 49.0424 22.9781L49.0016 22.9561C48.9784 22.944 48.9548 22.932 48.9309 22.9206C48.9215 22.9162 48.9126 22.9114 48.9032 22.9071C48.8711 22.8919 48.8383 22.8775 48.8055 22.8637C48.7929 22.8582 48.7803 22.8534 48.7674 22.8486C48.7456 22.8399 48.7236 22.8312 48.7012 22.8231C48.6897 22.8187 48.6785 22.8147 48.6671 22.8107L48.6587 22.8078C48.6367 22.8002 48.6149 22.7929 48.5925 22.7857L48.5507 22.7727C48.5257 22.7653 48.5003 22.7585 48.4748 22.7516C48.4691 22.75 48.4634 22.7484 48.4577 22.7468C48.4524 22.7454 48.4472 22.7441 48.4418 22.7429C48.4056 22.7337 48.3694 22.7254 48.3324 22.7179C48.3233 22.716 48.3141 22.7144 48.3049 22.7128C48.2767 22.7076 48.2478 22.7025 48.2192 22.6979C48.2121 22.6968 48.2052 22.6959 48.1982 22.6949C48.1918 22.6941 48.1854 22.6932 48.1788 22.6922C48.1538 22.6888 48.1284 22.6855 48.1031 22.6828L48.1016 22.6826C48.0879 22.6811 48.0744 22.6795 48.0607 22.6787C48.0339 22.6761 48.0071 22.6738 47.9805 22.6725C47.9678 22.6718 47.9557 22.6706 47.9431 22.6702C47.9041 22.6683 47.8647 22.6672 47.825 22.6672C47.1281 22.6672 46.4982 22.9479 46.0458 23.4001L44.3182 25.0953L37.4269 31.8566C37.0407 32.1724 36.7949 32.6473 36.7949 33.1788C36.7949 34.1291 37.5796 34.8993 38.5482 34.8993C39.0939 34.8993 39.5814 34.6544 39.9031 34.2708L46.0346 28.2552L46.035 28.2556C46.1192 28.1733 46.235 28.1219 46.3632 28.1219C46.6195 28.1219 46.8273 28.3258 46.8273 28.5773V34.6592C46.8273 34.7924 46.9371 34.9007 47.0729 34.9007H50.0722ZM60.9807 34.9007C61.1167 34.9007 61.2265 34.7924 61.2268 34.6594V31.7163C61.2268 31.5831 61.1167 31.4748 60.9807 31.4748H57.8814H57.1055H56.9532L56.8794 31.4746C56.7606 31.4746 56.6418 31.4301 56.551 31.3414C56.4604 31.2522 56.4152 31.1359 56.4152 31.0192H56.4143V27.8358V27.0745V22.9087C56.4143 22.7754 56.3043 22.6672 56.1683 22.6672H53.1692H53.169C53.0332 22.6672 52.9231 22.7754 52.9231 22.9087V27.0745V27.8358V33.1868V33.1878C52.9231 34.1334 53.7039 34.9 54.6675 34.9007H55.4689H56.1683H57.1055H57.8814H60.9807ZM61.4416 22.6968C61.9927 22.6968 62.4634 22.5053 62.8535 22.1226C63.2435 21.7397 63.4387 21.2781 63.4389 20.7374C63.4389 20.1969 63.2435 19.7351 62.8535 19.3521C62.4634 18.9694 61.9927 18.7779 61.4416 18.7779C60.8908 18.7779 60.4201 18.9694 60.03 19.3521C59.6397 19.7351 59.4446 20.1969 59.4446 20.7374C59.4446 21.2781 59.6397 21.7399 60.03 22.1226C60.4201 22.5053 60.8908 22.6968 61.4416 22.6968Z" fill="#090909"/>
</svg>
