<svg width="93" height="56" viewBox="0 0 93 56" fill="none" xmlns="http://www.w3.org/2000/svg">
<path fill-rule="evenodd" clip-rule="evenodd" d="M44.5043 9.00008C44.5044 9.00005 44.5046 9.00003 44.5048 9H44.5042C44.5042 9 44.5042 9.00003 44.5043 9.00008ZM44.5043 9.00008C43.4011 9.16933 42.3422 9.48952 41.359 9.93354C41.359 9.93354 42.5066 12.1468 43.0873 13.6318C43.9291 15.782 44.1414 17.8145 44.1414 17.8145C44.6945 17.5224 45.4223 17.2979 46.0771 17.2437C46.0771 17.2437 46.102 15.1759 45.6457 13.0439C45.1126 10.5644 44.5092 9.0129 44.5043 9.00008ZM46.9758 13.0444C47.5095 10.5535 48.1167 9 48.1167 9C49.2026 9.16696 50.2607 9.48083 51.2619 9.93299C51.2619 9.93299 50.1149 12.1468 49.5342 13.6318C48.6924 15.782 48.4801 17.8139 48.4801 17.8139C47.9281 17.5224 47.2175 17.2979 46.561 17.2437C46.561 17.2437 46.519 15.1764 46.9758 13.0444ZM36.6062 13.7523C37.272 12.8564 38.0706 12.0689 38.9566 11.3853L38.9572 11.3858C38.9572 11.3858 40.7584 12.7038 41.8778 14.3065C42.9961 15.9087 43.6923 18.0915 43.6923 18.0915C43.1509 18.4592 42.6919 18.9355 42.3446 19.4902C42.3446 19.4902 41.6804 17.6784 39.821 15.8788C38.4611 14.5642 36.6062 13.7523 36.6062 13.7523ZM53.6817 11.3855C53.6819 11.3854 53.682 11.3853 53.682 11.3853H53.6815C53.6816 11.3854 53.6817 11.3854 53.6817 11.3855ZM53.6817 11.3855C53.6554 11.4046 51.8554 12.7149 50.7437 14.3054C49.6238 15.9081 48.9291 18.091 48.9291 18.091C49.4707 18.4588 49.9297 18.9353 50.2769 19.4902C50.2769 19.4902 50.9384 17.6784 52.8005 15.8788C54.1582 14.5642 56.0148 13.7529 56.0148 13.7529C55.3498 12.8601 54.5647 12.0635 53.6817 11.3855ZM34.3945 19.0931C34.5586 17.9878 34.8784 16.9114 35.3447 15.8959C35.3447 15.8959 37.6 16.267 39.5788 17.6242C41.4221 18.8868 42.0509 20.0609 42.0509 20.0609C41.8253 20.5836 41.6676 21.1886 41.6527 21.7892C41.6527 21.7892 40.3708 20.5636 38.4207 19.8192C36.0492 18.9145 34.3945 19.0931 34.3945 19.0931ZM53.0422 17.6242C55.0047 16.279 57.2372 15.9025 57.2763 15.896C57.7427 16.9114 58.0628 17.9878 58.227 19.0931C58.227 19.0931 56.5723 18.9145 54.2002 19.8187C52.2485 20.5637 50.9688 21.7892 50.9688 21.7892C50.9544 21.1886 50.7973 20.5836 50.5706 20.0609C50.5706 20.0609 50.5709 20.0604 50.5715 20.0593C50.5989 20.0102 51.2402 18.8601 53.0422 17.6242ZM57.2763 15.896C57.2767 15.896 57.2768 15.8959 57.2768 15.8959H57.2763C57.2763 15.896 57.2763 15.896 57.2763 15.896ZM34.254 21.2185C34.254 21.2185 35.0421 20.953 36.4491 20.9591C36.9868 20.9652 37.5236 21.0057 38.0562 21.0802C39.7922 21.3125 41.6859 22.376 41.6859 22.376C41.75 23.0059 41.9276 23.6087 42.2218 24.1391C42.2218 24.1391 40.5997 23.5064 38.2293 23.6203C36.349 23.711 34.8071 24.4848 34.8071 24.4848C34.4808 23.4472 34.2839 22.3561 34.254 21.2185ZM54.5614 21.0802C55.162 20.9995 55.6995 20.9613 56.1685 20.9591C57.576 20.953 58.3636 21.2185 58.3636 21.2185C58.3325 22.3277 58.1464 23.4271 57.8105 24.4848C57.8105 24.4848 56.2692 23.711 54.3888 23.6203C52.0185 23.5064 50.3964 24.1391 50.3964 24.1391C50.6979 23.5948 50.886 22.995 50.9494 22.376C50.9494 22.376 52.8265 21.3125 54.5614 21.0802ZM38.9378 24.7961C39.3365 24.7154 39.7629 24.6623 40.1821 24.6402C41.4414 24.5749 42.6194 24.727 42.6194 24.727C43.1492 25.4117 43.8782 25.9382 44.7105 26.2479C44.7105 26.2479 42.3517 26.0217 40.0267 27.1289C38.3084 27.9474 37.3135 28.892 37.3135 28.892C36.5716 28.0606 35.9492 27.1299 35.4641 26.1268C35.4641 26.1268 36.5226 25.2828 38.9378 24.7961ZM49.9987 24.727C49.9987 24.727 50.5236 24.6623 51.2431 24.6402V24.6413C51.9631 24.6192 52.8823 24.6357 53.6798 24.7961C56.0955 25.2839 57.1712 26.1273 57.1712 26.1273C56.6805 27.1313 56.0523 28.062 55.3047 28.8925C55.3047 28.8925 54.3092 27.9474 52.5914 27.1289C50.267 26.0211 47.9248 26.2479 47.9248 26.2479C48.7447 25.9448 49.4632 25.4179 49.9987 24.727ZM38.523 30.0667C38.523 30.0667 41.4016 26.4553 46.3176 26.4553V26.4547C51.2342 26.4547 54.0951 30.0672 54.0951 30.0672C53.2183 30.8067 52.2406 31.4177 51.1916 31.8818C51.1916 31.8818 49.71 28.9434 46.3176 28.9434C42.9253 28.9434 41.4265 31.8818 41.4265 31.8818C40.3778 31.4168 39.4003 30.8057 38.523 30.0667ZM0 36.1159V35.2172H3.92331C4.71527 35.2172 5.49452 35.3565 6.15264 35.8394C6.85114 36.3625 7.24159 37.2131 7.24159 38.0864C7.24159 38.9182 6.92967 39.6692 6.32575 40.2466C5.63942 40.9042 4.90939 41.0242 4.00959 41.0242H2.19559V43.9277H3.40455V44.8092H0V43.9277H1.22721V36.1159H0ZM42.7748 36.0467V35.2172H44.8316V43.9796H46.024V44.8092H43.9501V43.3232C43.3456 44.3701 42.2848 44.9989 41.0637 44.9989C39.9493 44.9989 38.6568 44.3021 38.0391 43.3232C37.6763 42.7458 37.4346 41.982 37.4346 41.2835C37.4346 39.3247 39.0694 37.6368 41.0294 37.6368C42.2505 37.6368 43.3865 38.2822 43.9501 39.3827V36.0467H42.7748ZM50.4484 36.1159V35.2172L54.5962 35.2177C55.5209 35.2177 56.2952 35.2952 57.0329 35.9256C57.7569 36.5428 58.1219 37.4056 58.1219 38.3458C58.1219 39.9695 56.8559 41.3007 55.2184 41.3007L57.2232 43.9277H58.5018V44.8092H56.6353L53.6627 40.6785H54.0255C54.0683 40.6785 54.1111 40.6786 54.1538 40.6787C54.8337 40.6801 55.4895 40.6815 56.0822 40.3157C56.41 40.1142 56.6805 39.832 56.8682 39.4961C57.0558 39.1603 57.1542 38.7819 57.154 38.3972C57.154 37.7269 56.9113 37.0937 56.4279 36.6518C55.8638 36.1292 55.2521 36.1159 54.5271 36.1159H52.6428V43.9277H53.7838V44.8092H50.4478V43.9277H51.6756V36.1159H50.4484ZM60.4895 36.5998V35.2172H61.371V36.5998H60.4895ZM89.3519 36.0467V35.2172H91.4081V43.9796H92.5833V44.8092H90.5271V43.3232C89.9226 44.3701 88.8613 44.9989 87.6407 44.9989C86.5263 44.9989 85.2339 44.3021 84.6161 43.3232C84.2539 42.7458 83.9939 41.982 83.9939 41.2835C83.9939 39.3247 85.647 37.6368 87.6059 37.6368C88.827 37.6368 89.963 38.2822 90.5271 39.3827V36.0467H89.3519ZM3.90617 36.1159H2.19504V40.1432H3.92331C4.52724 40.1432 5.0648 40.0962 5.54761 39.6935C6.03097 39.2915 6.27376 38.7379 6.27376 38.1207C6.27094 37.8212 6.20119 37.5261 6.06962 37.257C5.93805 36.9879 5.74798 36.7517 5.51332 36.5655C5.00286 36.1756 4.52392 36.1159 3.90617 36.1159ZM7.36216 41.3527C7.36216 39.3534 8.95216 37.6368 10.9918 37.6368C13.0862 37.6368 14.69 39.2544 14.69 41.3355V41.6121H8.24371C8.3239 43.0605 9.55996 44.2042 11.0089 44.2042C12.031 44.2042 12.9529 43.7252 13.4634 42.8393H14.3964C14.1055 43.4844 13.6342 44.0316 13.0393 44.4149C12.4445 44.7982 11.7514 45.0012 11.0438 44.9995C9.01742 44.9995 7.36216 43.3663 7.36216 41.3527ZM22.8652 38.9851C23.3081 38.1135 24.2671 37.6368 25.2327 37.6368C26.0247 37.6368 27.1955 38.0587 27.6523 38.9851C27.8265 39.3352 28.05 39.975 28.05 40.8339V43.9796H29.2252V44.8092H25.976V43.9796H27.1684V41.1624C27.1684 40.532 27.1452 39.9164 26.8228 39.365C26.4472 38.708 25.663 38.5183 24.9905 38.5183C24.3739 38.5183 23.7351 38.7738 23.3314 39.2439C22.8757 39.7815 22.8652 40.3843 22.8652 41.0413V43.9796H24.0404V44.8092H20.7912V43.9796H21.9836V38.5874H20.7912V37.7579H22.8652V38.9851ZM29.3115 41.3355C29.3115 39.2821 30.9728 37.6368 33.0274 37.6368C35.0266 37.6368 36.6913 39.2799 36.6913 41.2664C36.6913 43.3204 35.0593 44.9995 32.9925 44.9995C30.9518 44.9995 29.3115 43.3486 29.3115 41.3355ZM63.4278 38.7605C64.0981 38.0764 64.983 37.6368 66.0028 37.6368C66.9972 37.6368 67.8306 38.0361 68.4738 38.7605V37.7579H69.3034V39.8838H68.4738C67.9639 39.0515 67.0348 38.5183 66.0548 38.5183C64.4963 38.5183 63.2895 39.7776 63.2895 41.3355C63.2895 42.9056 64.5394 44.1008 66.1233 44.1008C67.1293 44.1008 68.1276 43.5361 68.5435 42.597H69.5285C69.0058 44.0604 67.5801 44.9995 66.0371 44.9995C64.0373 44.9995 62.3903 43.3265 62.3903 41.3527C62.3903 40.3456 62.7824 39.4187 63.4278 38.7605ZM70.4963 39.2959C71.0726 38.2766 72.2804 37.6368 73.5552 37.6368C74.8316 37.6368 75.7972 38.2224 76.4415 39.2959V37.7579H78.4806V38.5874H77.3225V43.9796H78.4806V44.8092H76.4415V43.3403C75.8249 44.4005 74.7774 44.9995 73.5552 44.9995C72.2666 44.9995 71.0969 44.3613 70.4786 43.3403C70.1307 42.7629 69.8807 42.0965 69.9084 41.3184C69.9084 40.3337 70.1797 39.8547 70.4643 39.3524C70.475 39.3336 70.4856 39.3148 70.4963 39.2959ZM15.1739 38.5874V37.7579H17.2479V39.1925C17.5703 38.2119 18.4878 37.7977 19.4949 37.7579V38.5874C17.9375 38.7207 17.2484 39.6427 17.2484 41.1453V43.9796H18.4231V44.8092H15.1739V43.9796H16.3669V38.5874H15.1739ZM59.3142 38.5874V37.7579H61.371V43.9796H62.5462V44.8092H59.2794V43.9796H60.4895V38.5874H59.3142ZM79.4313 38.5874V37.7579H81.5052V39.1925C81.8277 38.2119 82.7446 37.7977 83.7523 37.7579V38.5874C82.1954 38.7207 81.5052 39.6427 81.5052 41.1453V43.9796H82.6805V44.8092H79.4313V43.9796H80.6237V38.5874H79.4313ZM13.8605 40.8859C13.6586 39.4502 12.4104 38.4492 10.9747 38.4492C9.61859 38.4492 8.40465 39.5575 8.24371 40.8859H13.8605ZM43.9843 41.2835C43.9843 39.7262 42.7101 38.484 41.1671 38.484V38.4835C40.7925 38.483 40.4215 38.5565 40.0753 38.6997C39.7291 38.8429 39.4145 39.0529 39.1496 39.3179C38.8848 39.5828 38.6747 39.8974 38.5316 40.2436C38.3885 40.5898 38.3151 40.9609 38.3156 41.3355C38.3156 42.8918 39.6241 44.1528 41.1671 44.1528C42.751 44.1528 43.9843 42.8675 43.9843 41.2835ZM90.5442 41.2835C90.5442 39.7262 89.27 38.484 87.727 38.484V38.4835C86.1425 38.4835 84.8926 39.7649 84.8926 41.3355C84.8926 42.8918 86.1829 44.1528 87.727 44.1528C89.3109 44.1528 90.5442 42.8675 90.5442 41.2835ZM32.9121 38.5162C32.846 38.5141 32.7795 38.512 32.716 38.5183C32.0255 38.587 31.385 38.9097 30.9188 39.4237C30.4527 39.9378 30.194 40.6067 30.193 41.3007C30.193 42.8315 31.4219 44.1179 32.9925 44.1179C33.3604 44.1186 33.7247 44.0466 34.0647 43.9061C34.4046 43.7657 34.7135 43.5595 34.9736 43.2994C35.2337 43.0393 35.4398 42.7304 35.5803 42.3905C35.7208 42.0505 35.7927 41.6862 35.7921 41.3184C35.7921 39.7876 34.5665 38.5183 33.0102 38.5183C32.9779 38.5183 32.945 38.5173 32.9121 38.5162ZM73.5434 38.5162C73.4775 38.5141 73.4113 38.512 73.3478 38.5183C71.9237 38.6627 70.79 39.8755 70.79 41.3355C70.79 42.8531 72.0642 44.1351 73.6072 44.1351C75.2049 44.1351 76.4415 42.8713 76.4415 41.3007C76.4415 39.7577 75.1845 38.5183 73.6415 38.5183C73.6091 38.5183 73.5763 38.5173 73.5434 38.5162Z" fill="#090909"/>
</svg>
