<svg width="144" height="56" viewBox="0 0 144 56" fill="none" xmlns="http://www.w3.org/2000/svg">
<g clip-path="url(#clip0_180_20821)">
<path fill-rule="evenodd" clip-rule="evenodd" d="M137.664 27.672C141.163 27.672 144 24.8353 144 21.336C144 17.8367 141.163 15 137.664 15C134.165 15 131.328 17.8367 131.328 21.336C131.328 24.8353 134.165 27.672 137.664 27.672ZM137.664 25.0498C135.613 25.0498 133.95 23.3871 133.95 21.336C133.95 19.2849 135.613 17.6222 137.664 17.6222C139.715 17.6222 141.378 19.2849 141.378 21.336C141.378 23.3871 139.715 25.0498 137.664 25.0498ZM18.4304 24.2158C14.7364 24.2158 11.7812 27.2341 11.7812 30.958C11.8007 34.6426 14.8142 37.6609 18.4498 37.6021C22.1049 37.5825 25.099 34.5642 25.0796 30.8992C25.0796 27.2341 22.0855 24.2158 18.4304 24.2158ZM18.411 34.7994C16.2918 34.7798 14.5809 33.0747 14.5809 30.9384C14.5809 28.7824 16.3112 27.0381 18.4304 27.0577C20.5496 27.0577 22.2605 28.802 22.2799 30.9188C22.2994 33.0355 20.5301 34.7994 18.411 34.7994ZM48.8973 32.4083C50.025 33.9958 51.1332 35.5833 52.2802 37.2297C52.2035 37.2383 52.138 37.2506 52.0788 37.2618L52.0787 37.2618C52.0029 37.2761 51.9374 37.2885 51.872 37.2885C51.6441 37.2885 51.4151 37.2897 51.1854 37.2909C50.494 37.2946 49.7971 37.2983 49.1112 37.2689C48.9168 37.2689 48.6446 37.1317 48.5279 36.9553C47.6919 35.8185 46.8754 34.6622 46.0782 33.4862C45.8838 33.2118 45.6894 33.0942 45.3589 33.1138C44.8705 33.1268 44.3821 33.1226 43.8769 33.1183H43.8768H43.8766H43.8765H43.8764H43.8763H43.8761H43.876H43.8759H43.8757C43.617 33.1161 43.354 33.1138 43.0842 33.1138V37.2297H40.1484V24.6078L40.1921 24.6003C40.2901 24.5835 40.3771 24.5686 40.479 24.5686C40.8639 24.5686 41.2489 24.5678 41.6338 24.567C43.1736 24.5639 44.7134 24.5607 46.2532 24.6078C47.5558 24.647 48.7807 25.0389 49.7333 26.0189C51.4248 27.7436 51.1915 30.6443 49.2862 32.1143C49.2612 32.1323 49.2368 32.1496 49.2129 32.1666L49.2124 32.167L49.2124 32.167C49.1062 32.2426 49.0082 32.3124 48.8973 32.4083ZM43.1036 30.3895C43.4054 30.3755 43.7038 30.3637 43.9997 30.352L43.9999 30.352H44C44.9432 30.3147 45.8607 30.2784 46.7782 30.1739C47.4975 30.0956 47.8864 29.5272 47.9058 28.9C47.9252 28.214 47.5753 27.6456 46.817 27.5476C45.9513 27.4368 45.0855 27.3945 44.206 27.3516L44.2058 27.3516L44.2055 27.3516C43.8409 27.3338 43.4739 27.3158 43.1036 27.2929V30.3895ZM77.3398 24.588C77.6611 24.588 77.9757 24.5902 78.2866 24.5924H78.2867H78.2868H78.2868H78.2869H78.287H78.287H78.2871H78.2872H78.2873C78.8983 24.5967 79.4952 24.6009 80.1006 24.588C80.3683 24.588 80.4192 24.7552 80.4702 24.9229C80.4821 24.9622 80.4941 25.0015 80.5089 25.0387C81.131 27.1555 81.7532 29.2526 82.3948 31.3693C82.4531 31.5653 82.5308 31.7613 82.7058 31.9769C82.735 31.8887 82.7641 31.8054 82.7933 31.7221L82.7934 31.7219C82.8225 31.6387 82.8517 31.5554 82.8808 31.4673L82.8808 31.4672L82.8809 31.4668L82.8811 31.4664L82.8812 31.466L82.8813 31.4656L82.8814 31.4653L82.8815 31.4649L82.8816 31.4645L82.8817 31.4641L82.8819 31.4637C83.5425 29.3286 84.2032 27.1935 84.825 25.0583C84.9416 24.686 85.0972 24.588 85.4666 24.588C86.1276 24.6076 86.7886 24.6076 87.4497 24.588C87.7996 24.5684 87.9551 24.686 88.0524 25.0387C88.4866 26.5163 88.9398 27.9842 89.3922 29.4493C89.5879 30.0832 89.7834 30.7164 89.9771 31.3497C90.0354 31.5653 90.1132 31.7613 90.3076 31.9573C90.3659 31.8005 90.4243 31.6241 90.4632 31.4673C91.1047 29.331 91.7463 27.1947 92.349 25.0387C92.4462 24.7056 92.5823 24.5684 92.9517 24.5684C93.5179 24.5813 94.084 24.5771 94.667 24.5728C94.965 24.5706 95.2674 24.5684 95.5764 24.5684C95.3832 25.25 95.2092 25.8542 95.0353 26.4579L95.0352 26.4582L95.0344 26.4612L95.0333 26.4651L95.032 26.4695C94.021 29.919 93.0295 33.3488 92.038 36.7983C91.9407 37.1707 91.7852 37.2883 91.4158 37.2883C90.7159 37.2687 90.016 37.2687 89.3355 37.2883C88.9856 37.3079 88.83 37.1903 88.7328 36.8375C88.2922 35.3875 87.8344 33.9374 87.3765 32.4874L87.3764 32.4871L87.3763 32.4868C87.1473 31.7615 86.9183 31.0362 86.6914 30.3109L86.6801 30.2802C86.6251 30.1314 86.5647 29.9676 86.4192 29.821C86.3901 29.919 86.356 30.0121 86.322 30.1052C86.288 30.1982 86.254 30.2913 86.2248 30.3893C85.5443 32.5257 84.8639 34.6816 84.2029 36.8179C84.1056 37.1511 83.9695 37.2883 83.6001 37.2883C82.8614 37.2687 82.1031 37.2687 81.3643 37.2883C81.1116 37.2883 80.9949 37.2099 80.9172 36.9551C79.7506 32.898 78.5647 28.841 77.3787 24.8036C77.3398 24.7644 77.3398 24.7056 77.3398 24.588ZM65.7715 37.2489V24.627H75.9008V27.3512C75.7063 27.3708 75.5314 27.3708 75.3369 27.3708C74.6565 27.3708 73.976 27.373 73.2955 27.3752C71.9346 27.3796 70.5736 27.3839 69.2127 27.3708C68.8239 27.3708 68.6683 27.4688 68.6878 27.8804C68.7133 28.2154 68.7053 28.5588 68.6968 28.9218V28.9218V28.9219V28.9219V28.922V28.9221V28.9221V28.9222L68.6968 28.9228C68.6923 29.1118 68.6878 29.306 68.6878 29.5072H73.8205V32.3099H68.6878V34.211C68.6878 34.5016 68.8725 34.4863 69.0463 34.4719C69.0612 34.4707 69.076 34.4694 69.0906 34.4684C69.1124 34.4669 69.1339 34.4658 69.1544 34.4658H75.4147H76.0174V37.2097C72.6348 37.2489 69.2134 37.2489 65.7725 37.2489H65.7715ZM100.496 27.3904H107.651V24.6465H97.5801V37.288H107.807V34.5245H106.368C104.56 34.5245 102.732 34.5245 100.924 34.5049C100.769 34.5049 100.496 34.3677 100.496 34.2893C100.467 33.8215 100.471 33.3537 100.474 32.8615C100.476 32.6938 100.477 32.5233 100.477 32.349H104.949V29.5267H100.496V27.3904ZM26.7527 24.6074H29.669V25.1562V32.0551C29.669 34.2307 31.5743 35.4458 33.5574 34.5442C34.5684 34.0935 34.9573 33.2311 34.9573 32.1727V25.1758V24.627H37.9124V25.1758V32.0747C37.9124 34.9166 36.3571 36.9354 33.5963 37.4645C31.3022 37.8957 29.2024 37.4253 27.7054 35.4262C27.0249 34.5246 26.7333 33.4663 26.7139 32.3491C26.6751 29.8668 26.6943 27.4039 26.7137 24.9217V24.9216V24.9215V24.9214V24.9213V24.9209L26.7139 24.9014C26.7139 24.8491 26.7225 24.7969 26.734 24.7272L26.734 24.7271C26.7398 24.6923 26.7463 24.6531 26.7527 24.6074ZM10.1098 26.3124C10.1439 26.2536 10.1779 26.1948 10.207 26.136C10.1682 26.0772 10.1293 26.038 10.0904 26.0184C8.4767 24.6856 6.6686 24.0389 4.58831 24.3524C3.26625 24.5484 2.11917 25.0972 1.30261 26.234C0.19442 27.8019 0.48605 30.1342 2.21639 31.0946C2.85797 31.4474 3.53844 31.7218 4.21891 31.957C4.58803 32.084 4.96133 32.1859 5.33493 32.2878L5.335 32.2878L5.33507 32.2878L5.33514 32.2879L5.3352 32.2879C5.76829 32.406 6.2018 32.5243 6.62971 32.6821C7.46572 32.9957 7.54349 33.7209 6.82413 34.2697C6.62971 34.4069 6.41585 34.5441 6.18255 34.6029C5.28822 34.8772 4.37444 34.936 3.519 34.5441C3.00264 34.3049 2.50632 33.995 2.00128 33.6797L2.00125 33.6797L2.00121 33.6797L2.00109 33.6796L2.00096 33.6795L2.00079 33.6794L2.00061 33.6793C1.80227 33.5555 1.60259 33.4308 1.39982 33.3093C0.972099 33.9953 0.505491 34.7597 0 35.6024C0.116652 35.6808 0.233304 35.7592 0.349955 35.8572C2.00252 37.3467 3.96616 37.8367 6.12422 37.5035C7.42683 37.3076 8.57391 36.7784 9.40991 35.7004C10.4792 34.3285 10.8875 31.761 8.53502 30.487C7.98068 30.1943 7.38153 30.0009 6.78625 29.8088C6.50466 29.7179 6.22395 29.6274 5.94924 29.5267C5.75168 29.4542 5.55043 29.3855 5.34833 29.3165L5.34831 29.3165L5.34829 29.3165L5.34827 29.3165L5.34825 29.3165C4.89406 29.1614 4.43559 29.0049 4.00505 28.8015C3.42179 28.5271 3.40235 28.0567 3.8884 27.6451C4.16058 27.4295 4.4911 27.2335 4.82161 27.1551C5.9298 26.8808 6.94078 27.1747 7.874 27.7627C8.10298 27.907 8.33196 28.0725 8.56869 28.2436L8.56886 28.2437L8.56938 28.2441L8.57046 28.2449L8.57167 28.2458C8.65558 28.3064 8.74045 28.3678 8.82665 28.4291C8.94041 28.2434 9.05266 28.0608 9.16382 27.8799L9.16385 27.8799C9.45164 27.4117 9.73213 26.9553 10.0126 26.4888C10.0418 26.43 10.0758 26.3712 10.1098 26.3124L10.1098 26.3124ZM64.0598 35.6985L64.0609 35.7003L64.0614 35.701C61.5533 38.0726 57.2567 38.4057 54.5154 35.6227C52.0073 33.0551 52.0073 28.7041 54.5348 26.215C57.2567 23.5299 61.3978 23.7651 63.9253 25.9798C63.7017 26.3522 63.4732 26.7246 63.2448 27.097L63.2446 27.0973L63.2445 27.0975L63.2443 27.0978C63.016 27.4699 62.7878 27.842 62.5643 28.2141C62.4511 28.1496 62.3415 28.085 62.2342 28.0218C61.9177 27.8353 61.62 27.6599 61.3006 27.5282C59.9591 26.9206 58.5982 26.8814 57.2956 27.6458C55.9929 28.4297 55.3125 30.1349 55.6624 31.7812C56.0124 33.4471 57.1595 34.5251 58.7926 34.7407C59.8619 34.8975 60.8146 34.6623 61.7089 34.0939C62.02 33.8979 62.331 33.6823 62.681 33.4275C63.1665 34.2106 63.6132 34.9546 64.0598 35.6985ZM124.293 24.6074H121.396C121.396 28.8605 121.396 33.0351 121.377 37.2489H131.059V34.4854H130.515C128.629 34.4854 126.762 34.4854 124.877 34.505C124.41 34.505 124.274 34.407 124.274 33.9171C124.303 31.7411 124.299 29.5541 124.296 27.3726V27.3707V27.3689C124.294 26.6436 124.293 25.9189 124.293 25.1954V24.6074ZM109.887 37.2293V24.6074H112.784V34.4462H119.569V37.2293H109.887Z" fill="#090909"/>
</g>
<defs>
<clipPath id="clip0_180_20821">
<rect width="144" height="56" fill="white"/>
</clipPath>
</defs>
</svg>
