<svg width="85" height="56" viewBox="0 0 85 56" fill="none" xmlns="http://www.w3.org/2000/svg">
<path d="M80.8503 34.7766H84.5L80.7328 22.2268H75.5451L71.7778 34.7766H75.4275L76.0946 32.4523H80.1832L80.8503 34.7766ZM76.8895 29.6604L78.1303 25.3259H78.151L79.3918 29.6604H76.8895ZM18.2175 35C21.964 35 23.775 34.3334 24.0342 30.9203C24.0964 30.1071 24.1068 29.273 24.1068 28.5017C24.1068 27.7305 24.0964 26.8964 24.0342 26.0832C23.7785 22.6666 21.9674 22 18.2175 22C14.4675 22 12.66 22.6666 12.4042 26.0797C12.342 26.8929 12.3282 27.727 12.3282 28.4983C12.3282 29.273 12.342 30.1071 12.4042 30.9168C12.66 34.3334 14.471 35 18.2175 35ZM15.8604 28.4983C15.8604 27.8107 15.8777 27.4024 15.8915 27.0988C15.9883 25.1619 16.7452 24.935 18.2175 24.935C19.6898 24.935 20.4467 25.1619 20.5435 27.0988C20.5573 27.4024 20.5746 27.8072 20.5746 28.4983C20.5746 29.1893 20.5573 29.5976 20.5435 29.8977C20.4502 31.8346 19.6933 32.0615 18.2175 32.0615C16.7452 32.0615 15.9883 31.8346 15.8915 29.8977C15.8777 29.5976 15.8604 29.1893 15.8604 28.4983ZM0 22.2303V25.3573H3.71539V34.7766H7.43077V25.3608H11.1462V22.2303H0ZM57.02 34.7766V22.2268H53.4947V34.7766H57.02ZM42.8324 26.8091V22.2268H39.3244V34.7766H42.8324V29.9361H46.9072V34.7766H50.4118V22.2268H46.9072V26.8091H42.8324ZM68.6223 28.2156C70.1845 27.8107 70.6442 26.8685 70.6442 25.5074C70.6442 22.7503 68.9265 22.2234 66.483 22.2234H60.1513V34.7732H66.7975C69.8562 34.7732 70.8861 33.4435 70.8861 31.3949C70.8827 29.971 70.5578 28.7111 68.6223 28.2156ZM63.6524 29.622H66.0855C67.0671 29.622 67.2744 30.0583 67.2744 30.7632C67.2744 31.4717 66.8908 31.9079 66.0855 31.9079H63.6524V29.622ZM63.6524 25.0956H66.0855C66.7214 25.0956 67.112 25.3992 67.112 26.1321C67.112 26.7603 66.7249 27.1442 66.0855 27.1442H63.6524V25.0956ZM26.1494 30.6585H29.4915C29.495 31.2658 29.571 31.6741 29.8648 31.8974C30.1966 32.1522 30.4938 32.236 31.4823 32.236C32.4327 32.236 33.473 32.236 33.473 31.0529C33.473 30.1211 32.8924 29.9082 31.8175 29.8489C29.1528 29.7058 28.192 29.629 27.2001 28.8856C26.5227 28.3796 26.1736 27.3919 26.1736 26.0553C26.1736 23.7834 26.9582 22.9877 28.0918 22.4328C29.26 21.8604 33.8463 21.8604 35.0802 22.4328C36.632 23.1552 36.6769 24.7187 36.6769 26.167H33.3417C33.3348 25.4271 33.1689 25.2177 33.0376 25.0816C32.692 24.771 32.1977 24.7047 31.4857 24.7047C30.6252 24.7047 29.6263 24.7431 29.6263 25.8005C29.6263 26.6067 29.9719 26.9452 30.8775 27.0046C32.1217 27.0848 34.5756 27.1651 35.45 27.6851C36.6769 28.418 36.9949 29.4091 36.9949 31.025C36.9949 33.3632 36.1654 34.0472 35.0145 34.5603C33.6839 35.1536 29.2427 35.1536 27.798 34.5149C26.184 33.803 26.1494 32.386 26.1494 30.6585Z" fill="#090909"/>
</svg>
