<svg width="61" height="56" viewBox="0 0 61 56" fill="none" xmlns="http://www.w3.org/2000/svg">
<path fill-rule="evenodd" clip-rule="evenodd" d="M58.6106 13.0387L58.6109 13.0394C58.7594 13.3677 58.9114 13.7038 59.0762 14.0569C59.1257 13.9503 59.1748 13.8451 59.2236 13.7407L59.2237 13.7404C59.4589 13.2365 59.6842 12.7537 59.8996 12.2511C59.9068 12.2511 59.9176 12.2547 59.9284 12.2584L59.9285 12.2584C59.9393 12.262 59.9501 12.2656 59.9574 12.2656V14.0713H60.6508V11.0088C60.5865 11.0088 60.5239 11.0122 60.463 11.0155C60.346 11.0218 60.2352 11.0278 60.1307 11.0088C59.8273 10.9655 59.654 11.081 59.5529 11.3844C59.4612 11.6492 59.3408 11.9068 59.212 12.1826C59.1581 12.2979 59.1027 12.4165 59.0473 12.5401C58.9655 12.3388 58.8837 12.154 58.8056 11.9772C58.7042 11.748 58.6088 11.5324 58.5272 11.3122C58.455 11.081 58.325 10.9943 58.0794 11.0232C57.9556 11.0328 57.8256 11.0297 57.6893 11.0266C57.6188 11.0249 57.5466 11.0232 57.4727 11.0232V14.0858H58.1805V12.2367C58.1974 12.2367 58.2094 12.2317 58.2193 12.2276C58.2226 12.2263 58.2256 12.225 58.2285 12.2241C58.2319 12.223 58.2351 12.2223 58.2383 12.2223C58.3633 12.4919 58.4852 12.7616 58.6096 13.0367L58.6104 13.0382L58.6106 13.0387ZM31.066 14.0283V16.5275C30.9734 16.5275 30.8826 16.5258 30.7928 16.5242L30.7926 16.5242C30.6161 16.521 30.4437 16.5179 30.2714 16.5275C29.7658 16.5564 29.6358 16.7442 29.7369 17.2931H34.6919V17.6687V25.2095C34.6919 25.4984 34.6197 25.614 34.3163 25.5995C33.6373 25.5706 32.9439 25.5706 32.265 25.5995C31.9616 25.614 31.9038 25.4984 31.9038 25.2239C31.9135 24.0014 31.9103 22.7852 31.907 21.567V21.5664V21.5658V21.5653V21.5647V21.5642V21.5637V21.5631V21.5626V21.562V21.5615V21.5609V21.5604V21.5599V21.5593V21.5588C31.9054 20.9516 31.9038 20.3438 31.9038 19.7345V19.2866H29.6792V25.5706H26.9055V19.2722H25.4609V17.3075H26.8477C26.8657 17.1546 26.8809 17.003 26.8959 16.8533C26.9291 16.5223 26.9614 16.2002 27.0211 15.8918C27.2233 14.8951 27.8734 14.3028 28.8557 14.1439C29.3735 14.0699 29.9067 14.0578 30.4553 14.0453L30.4554 14.0453C30.6569 14.0407 30.8604 14.0361 31.066 14.0283ZM53.5607 25.6008C53.7602 25.5999 53.9618 25.5989 54.1661 25.5989V25.5959C54.1661 21.711 54.1661 17.8838 54.1517 14.0566H51.3636V18.246C51.2336 18.2026 51.1903 18.1448 51.1614 18.0871C50.858 17.4803 50.3669 17.1192 49.7168 17.0036C49.2979 16.9314 48.8645 16.8736 48.4311 16.8736C47.1887 16.888 46.2064 17.437 45.6575 18.5638C44.7907 20.3551 44.7907 22.1897 45.5997 23.9954C45.9897 24.8622 46.6976 25.4545 47.6366 25.6134C48.2577 25.7145 48.9078 25.6712 49.529 25.5989C50.2657 25.5123 50.8147 25.1078 51.1758 24.4433C51.2192 24.3999 51.2625 24.3566 51.3781 24.2266C51.4503 24.66 51.5081 25.0067 51.5948 25.3389C51.6236 25.44 51.7392 25.5845 51.8259 25.5845C52.3981 25.6061 52.9704 25.6035 53.5607 25.6008ZM51.4099 21.0956L51.4099 21.0959L51.4099 21.0961L51.4099 21.0963L51.4099 21.0966L51.41 21.0968L51.41 21.0971L51.41 21.0973L51.41 21.0976L51.41 21.0978L51.41 21.0981C51.4133 21.1743 51.4165 21.2495 51.4214 21.3229C51.4178 21.3771 51.4151 21.4313 51.4124 21.4855C51.4043 21.648 51.3961 21.8105 51.3636 21.973C51.1903 23.2876 49.7023 23.9521 48.6189 23.2009C48.1855 22.8976 47.9833 22.4497 47.9399 21.9441C47.911 21.453 47.911 20.9474 47.9977 20.4706C48.1711 19.575 48.85 19.0838 49.7312 19.1272C50.6558 19.1705 51.2625 19.7339 51.3781 20.644C51.3971 20.7959 51.4036 20.9478 51.4099 21.0956ZM10.2207 14.0857H7.27374C7.27374 14.2591 7.27374 14.4035 7.28819 14.5336C7.28819 15.2456 7.28979 15.9592 7.2914 16.6734L7.2914 16.6737C7.29461 18.1038 7.29782 19.5361 7.28819 20.962C7.27374 22.3199 6.60923 23.0278 5.25131 23.1289C4.08119 23.2156 3.21444 22.6088 3.01219 21.5398C2.95441 21.2943 2.95441 21.0342 2.95441 20.7886V14.5047V14.0857H0.0507747C0.0363288 14.1291 0.0218828 14.1724 0.0218828 14.2013C0.0218828 14.9569 0.0164121 15.7126 0.0109414 16.4682C-0.00136765 18.1684 -0.0136767 19.8685 0.0363285 21.5687C0.0941122 23.36 0.931977 24.7179 2.69438 25.368C3.73449 25.758 4.81793 25.7869 5.90138 25.7003C8.1405 25.5125 10.2496 24.0823 10.2207 21.1642C10.2111 19.6812 10.2143 18.1982 10.2175 16.7152V16.7149C10.2191 15.9733 10.2207 15.2318 10.2207 14.4902V14.0857ZM8.25688 31.0167V28.5176H8.2558C5.51144 28.5176 2.81041 28.5176 0.109375 28.532V40.0165H3.02745V36.1017H7.44791V33.7037H3.0419V31.0167H8.25688ZM31.9321 38.1382V39.9873C31.1809 40.1606 30.4442 40.2473 29.693 40.0306C29.2018 39.8861 28.884 39.5683 28.754 39.0772L28.7539 39.077C28.725 38.9759 28.6962 38.8749 28.6673 38.7882C28.5946 38.8746 28.5248 38.9652 28.4551 39.0556L28.4551 39.0557C28.3032 39.2527 28.1521 39.4487 27.9739 39.5972C27.3816 40.0739 26.6738 40.1895 25.937 40.1751C25.2292 40.1606 24.5502 40.0017 24.0013 39.4961C22.7878 38.3404 23.1056 36.1591 24.5936 35.3646C25.3014 34.989 26.067 34.8878 26.8616 34.8734C27.223 34.8639 27.5844 34.8669 27.9622 34.8701H27.9623H27.9624H27.9625H27.9626H27.9627H27.9628H27.9629H27.963H27.9631H27.9632H27.9633H27.9634H27.9639H27.9642H27.9646C28.16 34.8717 28.3597 34.8734 28.5662 34.8734C28.5559 34.7701 28.5529 34.6724 28.5501 34.5789C28.545 34.4108 28.5404 34.2563 28.494 34.1078C28.3784 33.6744 28.0461 33.4721 27.5405 33.4432C27.0205 33.4288 26.6015 33.6599 26.4137 34.0644C26.3704 34.1655 26.2548 34.31 26.1826 34.31C25.3592 34.3245 24.5213 34.3245 23.6546 34.3245C23.6835 33.6455 23.9146 33.0965 24.3191 32.6054C24.7236 32.1142 25.2292 31.7964 25.8359 31.6086C27.0927 31.2186 28.3495 31.2041 29.5774 31.6808C30.6608 32.1142 31.2387 32.9521 31.2965 34.0789C31.349 34.8988 31.3404 35.7264 31.3318 36.5505V36.5506L31.3318 36.551C31.3286 36.8592 31.3254 37.167 31.3254 37.4737C31.3254 38.0226 31.3831 38.0804 31.9321 38.1382ZM27.9612 36.517L27.9605 36.517C27.5914 36.5138 27.2265 36.5106 26.8616 36.5202C26.7171 36.5202 26.5582 36.5925 26.4282 36.6647C25.9226 36.9681 25.937 37.7048 26.4571 37.9648C26.9916 38.2249 27.555 38.1815 28.0317 37.8348C28.4651 37.5315 28.6095 37.0692 28.5229 36.5202C28.3342 36.5202 28.1472 36.5186 27.9612 36.517ZM14.2311 31.4767H14.2302H14.2293H14.2284H14.2275H14.2266H14.2257H14.2248H14.2239H14.2229H14.222H14.2211C14.0357 31.4777 13.8483 31.4786 13.6582 31.4786C13.6582 34.3389 13.6582 37.1703 13.6727 40.0161H16.4318V39.6116C16.4318 39.1649 16.4302 38.7165 16.4286 38.2676L16.4286 38.266C16.4254 37.3656 16.4222 36.463 16.4318 35.5668C16.4318 35.2779 16.4752 34.9889 16.5474 34.7145C16.7641 33.9199 17.443 33.501 18.252 33.5877C19.0321 33.6744 19.4077 34.0788 19.4799 34.9745C19.4944 35.119 19.4944 35.2634 19.4944 35.4079V39.5972V40.0161H22.2824V39.5972C22.2824 39.0927 22.284 38.5865 22.2856 38.0793V38.0789C22.2888 37.0614 22.2921 36.0396 22.2824 35.0178C22.2824 34.6567 22.268 34.2955 22.2102 33.9344C22.0657 32.9376 21.6757 32.0564 20.6934 31.5941C20.0433 31.3052 19.3644 31.3197 18.6709 31.3775C17.7753 31.4497 17.0819 31.8108 16.6485 32.6198C16.6172 32.672 16.5784 32.7091 16.5211 32.7638L16.5211 32.7638C16.4991 32.7848 16.4743 32.8084 16.4463 32.8365C16.4125 32.7143 16.3813 32.5969 16.351 32.4835L16.351 32.4834C16.2776 32.208 16.2103 31.9552 16.1285 31.7097C16.0851 31.623 15.9551 31.493 15.8684 31.493C15.3287 31.4714 14.7891 31.474 14.2313 31.4767H14.2311ZM12.238 17.0306H12.2384H12.2385C12.7973 17.0279 13.3399 17.0252 13.8907 17.0468C13.9774 17.0468 14.0929 17.1769 14.1363 17.278C14.2087 17.4952 14.2697 17.718 14.3372 17.9643C14.3774 18.1112 14.42 18.2664 14.4685 18.4337C14.5362 18.3322 14.589 18.2554 14.6328 18.1918L14.6328 18.1917L14.6328 18.1917C14.6638 18.1468 14.6902 18.1084 14.7141 18.0725C15.133 17.3791 15.7542 17.018 16.5343 16.9457H16.5343C16.9533 16.9168 17.3722 16.8879 17.7911 16.9313C18.9757 17.018 19.698 17.7114 20.0302 18.8092C20.1747 19.2715 20.2469 19.7771 20.2614 20.2683C20.283 21.5348 20.2803 22.7933 20.2776 24.0558V24.0559V24.0561V24.0563V24.0564V24.0566V24.0568V24.0569V24.0571V24.0573V24.0574V24.0576V24.0589V24.0602V24.0615V24.0628V24.0641V24.0654V24.0667V24.068V24.0693V24.0706V24.0719C20.2767 24.4888 20.2758 24.9061 20.2758 25.3244C20.2758 25.393 20.2668 25.4525 20.2558 25.5245C20.2529 25.5434 20.2499 25.5633 20.2469 25.5844H17.5022V25.1799V20.9617C17.5022 20.8028 17.5022 20.6439 17.4877 20.4994C17.3722 19.6327 17.011 19.2426 16.2743 19.1848C15.4075 19.1126 14.7863 19.5171 14.5696 20.2972C14.483 20.6005 14.4541 20.9184 14.4541 21.2217C14.4444 22.0992 14.4477 22.9767 14.4509 23.8498V23.8499V23.85V23.8501V23.8502V23.8503V23.8504V23.8505V23.8505V23.8506V23.8507V23.8508C14.4525 24.2855 14.4541 24.719 14.4541 25.151V25.57H11.6949C11.666 22.7241 11.666 19.9071 11.666 17.0324C11.8577 17.0324 12.0466 17.0315 12.2337 17.0306H12.2342H12.2346H12.235H12.2355H12.2359H12.2363H12.2367H12.2372H12.2376H12.238ZM32.8867 40.016H35.6459V40.0159C35.6459 39.8426 35.6459 39.7126 35.6748 39.6259C35.6748 39.1874 35.6732 38.7505 35.6716 38.3141V38.3126V38.3111V38.3096V38.3081V38.3066V38.3051V38.3036V38.3021V38.3006V38.299C35.6684 37.4178 35.6652 36.5388 35.6748 35.6533C35.6892 35.3499 35.7181 35.0321 35.8048 34.7287C36.007 33.9776 36.6716 33.5442 37.4516 33.6164C38.2173 33.6886 38.5929 34.0642 38.7084 34.931C38.7373 35.0754 38.7373 35.2343 38.7373 35.3933V39.6548C38.7373 39.7198 38.7409 39.7848 38.7445 39.8498C38.7482 39.9148 38.7518 39.9798 38.7518 40.0448H41.4821C41.4821 39.99 41.4863 39.9437 41.4902 39.9013L41.4902 39.9012C41.4935 39.8654 41.4965 39.8323 41.4965 39.7993C41.4965 38.1091 41.4965 36.4334 41.4821 34.7432C41.4676 34.3098 41.4098 33.8764 41.3087 33.4575C41.1065 32.6774 40.7164 32.0274 39.9797 31.6518C39.2863 31.2906 38.5495 31.3195 37.7983 31.3917C36.9605 31.4784 36.3104 31.8251 35.8915 32.5763C35.8677 32.6239 35.8352 32.6628 35.794 32.7121C35.7601 32.7526 35.7204 32.8001 35.6748 32.8652C35.6262 32.698 35.5837 32.5429 35.5435 32.3961L35.5434 32.3958C35.476 32.1496 35.4149 31.9267 35.3425 31.7095C35.3136 31.6229 35.2125 31.4929 35.1547 31.4929C34.4037 31.4784 33.6528 31.4784 32.8873 31.4784H32.8867V40.016ZM43.8794 22.8402C43.7783 23.7936 43.446 24.5448 42.6515 25.0649C41.2213 26.0039 38.7944 25.975 37.4221 24.9637C36.0208 23.9525 35.6308 22.4935 35.7319 20.8611C35.8186 19.5465 36.3242 18.4197 37.4365 17.6252C38.1877 17.0763 39.0545 16.8885 39.9501 16.874C41.1202 16.874 42.1892 17.1341 43.0415 18.0153C44.0238 19.012 44.1828 20.2255 44.0383 21.5256C44.029 21.6095 44.0136 21.6935 43.9962 21.789L43.9961 21.7891V21.7891L43.9961 21.7895L43.9959 21.7901C43.9864 21.8423 43.9762 21.898 43.9661 21.959H38.5488C38.4188 22.7969 38.8378 23.4614 39.6178 23.6058C40.3257 23.7358 40.9613 23.6203 41.3947 22.9558C41.4236 22.898 41.4958 22.8402 41.5536 22.8402H43.8794ZM41.308 20.1533C41.2936 19.4165 40.7735 18.9687 39.9501 18.9542C39.1267 18.9398 38.5777 19.4021 38.5633 20.1533H41.308ZM55.0036 38.0081C54.3824 37.7915 54.0357 37.1847 54.1079 36.4046H54.5124C56.087 36.4046 57.6616 36.4046 59.2362 36.3902C59.3518 36.3902 59.5685 36.2891 59.5829 36.2024C59.7996 34.8156 59.6696 33.5155 58.6295 32.4465C57.7772 31.5653 56.6793 31.2908 55.5092 31.3052C54.628 31.3197 53.8046 31.5219 53.0534 32.0275C50.8576 33.5155 50.9732 36.9391 52.0999 38.5137C53.5879 40.5795 56.8382 40.5217 58.4128 39.3516C59.1207 38.8316 59.3518 38.1093 59.4674 37.257C58.6728 37.257 57.9505 37.257 57.2138 37.2714C57.1127 37.2714 56.9827 37.387 56.9249 37.4736C56.5493 38.0081 55.697 38.2537 55.0036 38.0081ZM55.5814 33.3999C56.3759 33.4288 56.8815 33.891 56.8815 34.5989H54.1368C54.1802 33.8333 54.7291 33.3854 55.5814 33.3999ZM47.9528 34.6997C47.7361 33.9196 47.3605 33.6162 46.6094 33.6162C45.9015 33.6162 45.4248 33.9918 45.2514 34.7141C45.0781 35.4075 45.0781 36.1298 45.2514 36.8232C45.4826 37.7044 46.2049 38.1234 47.0716 37.8778C47.5772 37.7333 47.8228 37.3433 47.9384 36.8377H50.6542C50.6398 37.5455 50.4375 38.1812 50.0042 38.7157C49.0652 39.9002 47.7795 40.2325 46.3349 40.1891C43.6624 40.088 42.16 37.9934 42.3045 35.4653C42.4056 33.6885 43.1712 32.345 44.8758 31.666C46.436 31.0449 48.6607 31.2616 49.8452 32.6484C50.3509 33.2406 50.6109 33.9052 50.6542 34.6997H47.9528ZM12.215 31.7676H9.44141V32.2298V37.9649C9.44141 38.5427 9.44141 39.135 9.45585 39.7273C9.45585 39.8284 9.57142 40.0162 9.64365 40.0162C10.4957 40.0307 11.3478 40.0307 12.2143 40.0307H12.215V31.7676ZM21.8496 17.3213H24.5654V25.5844H21.8496V17.3213ZM9.46875 28.5605H12.2135V31.0019H9.46875V28.5605ZM34.6488 16.5126V14.0857H31.9041V16.5126H34.6488ZM21.8497 14.0713H24.5655V16.5126H21.8497V14.0713ZM54.6855 11.7452H55.4512V14.071H56.2313V11.7452C56.3645 11.7382 56.4909 11.7345 56.6137 11.731C56.7441 11.7273 56.8705 11.7237 56.9969 11.7163V11.0518H54.6855V11.7452Z" fill="#090909"/>
</svg>
