<svg width="36" height="56" viewBox="0 0 36 56" fill="none" xmlns="http://www.w3.org/2000/svg">
<path fill-rule="evenodd" clip-rule="evenodd" d="M36 27.0074C36 17.082 27.9184 9 18.0074 9C8.09663 9 -0.000224649 17.0818 4.67478e-09 27.0074C4.67478e-09 36.9034 8.09663 45.0002 18.0074 45.0002C27.9182 45.0002 36 36.9034 36 27.0074ZM33.7145 27.0076C33.7145 18.3503 26.6498 11.286 18.0074 11.286C9.36487 11.286 2.30079 18.3503 2.30079 27.0074C2.30079 35.65 9.36487 42.6997 18.0074 42.6997C26.65 42.6997 33.7145 35.6502 33.7145 27.0076ZM13.1257 33.1722L7.49186 18.5567C8.55384 17.2442 9.83689 16.138 11.297 15.2973L15.2638 26.2258H20.8389L24.7911 15.3418C26.1481 16.1398 27.3558 17.1677 28.3604 18.3797L22.6674 33.1722L20.603 27.8333H15.1904L13.1257 33.1722ZM24.2162 38.9683L30.6319 22.2291C31.1922 23.7186 31.487 25.3263 31.487 27.0076C31.487 32.1989 28.523 36.7117 24.2162 38.9683ZM21.3702 39.7202L21.414 40.0594C20.3228 40.3398 19.1871 40.4872 18.0074 40.4872C16.7538 40.4872 15.5445 40.3248 14.3942 40.0006L14.4088 39.7202L17.8893 30.6944L21.3702 39.7202ZM5.27982 22.524L11.5329 38.8207C7.34448 36.5345 4.51283 32.0808 4.51283 27.0074C4.51283 25.4294 4.77838 23.925 5.27982 22.524ZM21.4585 13.9552C20.3522 13.6604 19.1871 13.5128 18.0074 13.5128C16.8681 13.5114 15.7331 13.6552 14.6301 13.9406L18.0517 23.3793L21.4585 13.9552Z" fill="#090909"/>
</svg>
