<svg width="160" height="56" viewBox="0 0 160 56" fill="none" xmlns="http://www.w3.org/2000/svg">
<path d="M44.9709 22.828C45.8196 21.3221 47.5235 20.4498 49.2213 20.3851C51.1565 20.2938 53.094 20.3688 55.0318 20.3451C55.0318 21.444 55.0318 22.5426 55.029 23.6442C53.366 23.647 51.7007 23.6384 50.0352 23.6414C49.2755 23.6331 48.4369 23.8322 47.9681 24.481C47.4566 25.1437 47.5584 26.0295 47.5475 26.8156C47.5799 28.0633 47.5044 29.3101 47.5774 30.5571C47.6308 31.3941 48.1542 32.2565 49.0215 32.4476C50.0028 32.6277 51.0103 32.5207 52.0027 32.477C51.9995 31.5319 51.9995 30.586 52.0027 29.6414C51.3716 29.6362 50.741 29.6339 50.1102 29.6309C50.113 28.6699 50.113 27.7056 50.113 26.7438C51.8432 26.7411 53.5707 26.7411 55.2982 26.7411C55.2845 29.4367 55.3385 32.1325 55.271 34.8257C53.5085 36.1128 51.2578 35.7036 49.2237 35.7658C47.3343 35.8064 45.5045 34.6455 44.7263 32.9241C43.9712 31.3573 44.2249 29.5795 44.1841 27.8989C44.1786 26.1911 44.0737 24.3573 44.9709 22.828ZM106.591 22.5017C107.48 21.1658 109.076 20.4526 110.652 20.3827C112.589 20.2938 114.532 20.3689 116.476 20.3448C116.476 21.4437 116.476 22.5424 116.473 23.6439C114.719 23.6544 112.964 23.6223 111.21 23.6515C110.361 23.6598 109.41 24.0665 109.138 24.9362C108.752 26.2402 109 27.6187 108.925 28.9596C108.911 30.1206 108.844 31.639 110.025 32.2907C111.1 32.7377 112.315 32.4985 113.45 32.4639C113.441 31.5214 113.444 30.5815 113.447 29.6414C112.816 29.6362 112.185 29.6335 111.555 29.6309C111.557 28.6699 111.557 27.7056 111.557 26.7438C113.287 26.7411 115.015 26.7411 116.742 26.7438C116.753 29.4074 116.732 32.0705 116.756 34.7367C115.031 36.1321 112.738 35.7036 110.695 35.7683C108.792 35.825 106.93 34.6719 106.152 32.9377C105.365 31.3675 105.696 29.574 105.629 27.8909C105.608 26.0676 105.475 24.0665 106.591 22.5017ZM0 20.544C1.24776 20.5494 2.49565 20.5467 3.74553 20.5467C4.51404 23.7325 5.21394 26.9348 6.00912 30.1144C6.46184 26.9184 7.03835 23.7401 7.53153 20.5486C8.94647 20.5428 10.3586 20.5458 11.7734 20.5486C12.288 23.7345 12.8084 26.9232 13.3257 30.1089C14.0641 26.9204 14.8138 23.7317 15.5626 20.5458C16.8106 20.5458 18.0611 20.5486 19.3084 20.5428C17.9231 25.5923 16.5137 30.6366 15.142 35.6914C13.862 35.6944 12.5845 35.6972 11.3043 35.6886C10.7627 32.5243 10.1726 29.3656 9.66018 26.1954C9.11843 29.3656 8.55771 32.5298 7.99473 35.6944H4.16773C2.79485 30.6403 1.38522 25.5963 0 20.544ZM18.0722 35.6954C19.455 30.6427 20.8562 25.5963 22.2437 20.5467H26.0921C27.4746 25.599 28.8786 30.6427 30.2584 35.6922C29.0946 35.6954 27.9297 35.6922 26.7627 35.698C26.5311 34.6638 26.3127 33.6297 26.0703 32.5983C24.8177 32.5951 23.564 32.5983 22.3081 32.5951C22.0818 33.6267 21.8471 34.6556 21.6235 35.6869C20.4413 35.7005 19.2555 35.6954 18.0722 35.6954ZM22.9827 29.9053C23.8045 29.9021 24.6271 29.9053 25.4485 29.9126C25.0471 28.0894 24.6233 26.2744 24.2171 24.4567C23.8045 26.2723 23.3898 28.0872 22.9827 29.9053ZM31.9893 20.4794C34.4179 20.4868 36.8434 20.4603 39.2715 20.4897C40.7106 20.4624 42.2086 21.5052 42.2926 23.0162C42.3062 24.368 42.3062 25.72 42.2899 27.0722C42.2575 28.1439 41.4109 28.9632 40.4869 29.3744C41.371 31.4591 42.2602 33.5414 43.1468 35.6284H39.2878C38.5977 33.7431 37.9461 31.8445 37.2394 29.9672C36.5657 29.9702 35.8948 29.973 35.2238 29.973C35.2211 31.8582 35.2295 33.7459 35.2183 35.6312C34.143 35.6259 33.0677 35.6259 31.9923 35.6312C31.9837 30.5783 31.9893 25.5288 31.9893 20.4794ZM35.2233 23.5092C35.2233 24.6777 35.2205 25.8439 35.2262 27.0128C36.2015 26.9887 37.177 27.0559 38.1502 26.9861C38.7702 26.9371 39.1315 26.3095 39.064 25.7309C39.0424 25.0193 39.2849 23.9373 38.4523 23.6008C37.3927 23.3932 36.2987 23.56 35.2233 23.5092ZM60.3754 20.5494C61.6555 20.5434 62.9357 20.5522 64.2185 20.5413C65.62 25.5881 67.0162 30.6376 68.39 35.6958H64.8947C64.6652 34.6585 64.4473 33.6215 64.1966 32.5906C62.9484 32.604 61.698 32.5987 60.4478 32.5966C60.2267 33.6307 59.9838 34.659 59.766 35.6962H56.214C57.586 30.6426 59.0037 25.6016 60.3754 20.5494ZM61.1194 29.9078C61.9411 29.9053 62.7656 29.9053 63.5874 29.9053C63.1833 28.0843 62.7575 26.2694 62.3585 24.4491C61.9356 26.2664 61.5315 28.0872 61.1194 29.9078ZM69.8562 20.5467C71.2356 20.5495 72.6153 20.5385 73.9953 20.5572C74.9463 24.2416 75.9409 27.914 76.9058 31.5957C77.9414 27.9228 78.8892 24.2281 79.8997 20.5489C81.2661 20.5461 82.6326 20.5461 84.0016 20.5461V35.6947H80.9024C80.9268 32.8159 80.8489 29.9393 80.795 27.0625C80 29.9228 79.3096 32.8154 78.5794 35.6947C77.4614 35.6917 76.3426 35.708 75.2272 35.6756C74.5158 32.7243 73.7612 29.7831 73.0252 26.8395C73.0118 29.7914 73.0226 32.7395 73.0195 35.6944H69.853C69.8535 30.6458 69.8506 25.5963 69.8562 20.5467ZM86.6322 20.5494C87.7284 20.5466 88.8279 20.5466 89.9303 20.5466V35.6952H86.629C86.6298 30.6458 86.6298 25.5963 86.6322 20.5494ZM92.5606 20.5494C93.6359 20.5466 94.7111 20.5434 95.7868 20.5494C97.3849 23.4848 98.9718 26.4232 100.584 29.3501C100.565 26.4151 100.578 23.4823 100.578 20.5494C101.632 20.5466 102.685 20.5466 103.739 20.5494C103.742 25.5962 103.742 30.6456 103.742 35.6926C102.664 35.6954 101.588 35.6954 100.516 35.6926C98.9064 32.7161 97.3248 29.7275 95.7135 26.754C95.7348 29.7351 95.7193 32.7138 95.7244 35.6955H92.5577C92.5585 30.6458 92.5585 25.5963 92.5606 20.5494ZM124.696 20.5467C125.768 20.5467 126.844 20.5495 127.916 20.544C129.555 23.4979 131.137 26.4819 132.775 29.4363C132.789 26.4714 132.775 23.5091 132.781 20.5466C133.813 20.5466 134.845 20.5466 135.877 20.5494C135.88 25.5962 135.88 30.6456 135.88 35.6952C134.797 35.6921 133.713 35.7057 132.632 35.6784C131.069 32.6757 129.431 29.7137 127.854 26.7186C127.873 29.7078 127.854 32.6995 127.865 35.6915C126.809 35.6974 125.752 35.6946 124.696 35.6946C124.696 30.6458 124.693 25.5963 124.696 20.5467ZM138.308 20.5494C141.539 20.5466 144.773 20.5466 148.007 20.5466C148.004 21.5324 148.004 22.5173 148.01 23.5032C145.875 23.5164 143.741 23.5032 141.606 23.5091C141.604 24.4515 141.604 25.3943 141.606 26.3367H147.398C147.401 27.3225 147.401 28.3109 147.398 29.2957C145.468 29.2989 143.539 29.2989 141.609 29.2989C141.604 30.4192 141.604 31.5422 141.609 32.6653H148.004C148.007 33.6752 148.007 34.6849 148.004 35.6952H138.305C138.306 30.6458 138.303 25.5963 138.308 20.5494ZM149.557 20.5494C153.039 20.5434 156.518 20.5494 160 20.5466V23.5091H156.499C156.494 27.5487 156.499 31.5882 156.494 35.6277H153.198C153.195 31.5908 153.192 27.5536 153.198 23.5161C151.985 23.5056 150.77 23.5056 149.557 23.5088V20.5494ZM119.037 32.5983C120.09 32.5983 121.144 32.5983 122.198 32.5951C122.203 33.6267 122.203 34.6582 122.205 35.6897C121.149 35.6978 120.093 35.6956 119.036 35.6956C119.037 34.6612 119.034 33.6297 119.037 32.5983Z" fill="#090909"/>
</svg>
