<svg width="98" height="56" viewBox="0 0 98 56" fill="none" xmlns="http://www.w3.org/2000/svg">
<path fill-rule="evenodd" clip-rule="evenodd" d="M91.4187 31.8645C89.2122 36.4025 85.8055 39.5144 82.8942 40.321C83.4373 40.3917 83.9913 40.4281 84.5539 40.4281C88.167 40.4281 91.4308 38.9193 93.7467 36.4961C93.7506 35.2932 92.8487 33.6099 91.4187 31.8645ZM87.0311 27.7333C84.5624 33.4425 80.5565 38.0786 77.8379 38.5136C74.2356 36.2698 71.8398 32.2735 71.8398 27.7141C71.8398 26.2864 72.0748 24.9139 72.508 23.6332C73.054 23.3511 73.9252 23.0684 75.1813 23.0684C79.2807 23.0684 83.6042 25.1607 87.0311 27.7333ZM84.5539 15C81.3346 15 78.3961 16.1944 76.157 18.1645C76.7668 18.0044 77.5336 17.8911 78.4373 17.8911C82.4726 17.8911 86.0916 19.3109 88.9526 21.275C89.1235 20.2075 89.2195 19.1507 89.2195 18.1046C89.2195 16.9647 89.067 16.231 88.8785 15.7549C87.5282 15.2663 86.0719 15 84.5539 15ZM93.6925 21.8408C93.6925 20.2627 93.5293 19.217 93.3297 18.5154C95.7555 20.8301 97.268 24.0946 97.268 27.7141C97.268 29.3184 96.9708 30.8531 96.4286 32.2662C96.3292 30.3632 95.2443 27.8499 93.4043 25.4916C93.5858 24.3174 93.6925 23.1004 93.6925 21.8408ZM45.122 35.1915C49.0797 35.1915 51.8825 32.2653 51.8825 28.3077C51.8825 24.35 49.0797 21.4238 45.122 21.4238C41.0411 21.4238 38.3391 24.4509 38.3391 28.3077C38.3391 32.3886 41.0859 35.1915 45.122 35.1915ZM45.122 23.9464C47.4876 23.9464 48.3846 25.9981 48.3846 28.3077C48.3846 30.6172 47.4989 32.6689 45.122 32.6689C42.7564 32.6689 41.8371 30.6172 41.8371 28.3077C41.8371 25.9981 42.7452 23.9464 45.122 23.9464ZM26.1635 22.8813C27.2622 23.8567 27.9125 25.2918 28.0806 27.0856C28.1031 27.3771 28.1255 27.8592 28.1255 28.1619V28.801C28.1255 29.1822 27.9797 29.4064 27.6546 29.4064H18.7751C18.8536 30.1575 19.1115 30.8078 19.5599 31.3235C20.2662 32.1308 21.1744 32.568 22.7888 32.568C23.5512 32.568 24.3584 32.3774 25.132 32.0859C25.4567 31.9687 25.7088 31.8442 25.9992 31.7008C26.0699 31.6659 26.1428 31.6299 26.2195 31.5926C26.455 31.4805 26.7465 31.5478 26.8137 31.8056L27.3743 33.3977C27.4528 33.7116 27.3519 33.8013 27.038 33.9919C26.141 34.5524 24.0557 35.2027 22.3179 35.2027C20.1541 35.2027 18.4276 34.5749 17.1943 33.4313C15.9386 32.2653 15.2435 30.5275 15.2435 28.3861C15.2435 25.8972 16.3535 24.0473 17.7885 22.8701C18.9994 21.8835 20.6362 21.435 21.9255 21.435C23.6857 21.435 25.1096 21.9396 26.1635 22.8813ZM18.7639 27.0296H24.8966V26.9511C24.8966 25.1572 23.8091 23.9576 22.0377 23.9576C20.7483 23.9576 19.7057 24.6639 19.1563 25.7627C18.9545 26.1663 18.8312 26.5811 18.7639 27.0296ZM36.4107 21.4463C33.8433 21.4463 32.2849 22.0292 31.2759 23.3298C30.5023 24.3164 30.3678 25.4263 30.3678 27.8256V34.3506C30.4126 34.8215 30.592 35.0345 31.0292 35.0345H33.0585C33.5294 35.0345 33.72 34.7879 33.72 34.3506V27.7022C33.72 26.1999 33.7424 25.359 34.2693 24.7985C34.7178 24.3052 35.3232 23.9912 36.6013 23.9912C36.8247 23.9912 37.3425 24.0464 37.5964 24.0735L37.6664 24.0809C37.7138 24.0809 37.7572 24.085 37.7915 24.0883C37.8139 24.0904 37.8325 24.0922 37.8458 24.0922C38.07 24.0922 38.1485 24.0137 38.2158 23.7334L38.5073 22.2423C38.5633 21.9396 38.5185 21.6929 38.2158 21.6256C37.7561 21.5135 37.0162 21.4463 36.4107 21.4463ZM11.2186 22.0853C10.0414 24.3052 8.98753 25.6169 8.52786 26.0878C7.81033 25.2357 6.85735 23.6998 6.18467 22.0853C6.02771 21.7377 5.87075 21.6144 5.56804 21.6144H2.75396C2.52973 21.6144 2.37277 21.7938 2.46247 22.0965C3.06788 24.0697 4.60385 26.4129 6.19588 28.3413C4.16661 30.1688 2.74275 32.6016 2.03643 34.5524C1.92432 34.8327 2.09249 35.0233 2.24945 35.0233H4.63749C4.98504 35.0233 5.142 34.9 5.29896 34.5524C5.94923 33.1174 6.91341 31.4693 8.16909 30.1351C9.32387 31.2451 10.3329 32.938 10.9832 34.5412C11.1626 34.9897 11.3756 35.0121 11.6446 35.0121H14.2681C14.7614 35.0121 14.8063 34.743 14.7166 34.5076C13.7188 31.8953 11.5998 29.2158 10.4114 28.0834C11.4989 26.9062 13.4833 24.6527 14.3466 22.0853C14.4699 21.7041 14.2345 21.6144 14.0439 21.6144H11.8577C11.5886 21.6144 11.4092 21.7041 11.2186 22.0853ZM61.4907 22.0853C60.3135 24.3052 59.2597 25.6169 58.8 26.0878C58.0825 25.2357 57.1407 23.6998 56.468 22.0853C56.3111 21.7377 56.1541 21.6144 55.8514 21.6144H53.0373C52.8131 21.6144 52.6561 21.7938 52.7458 22.0853C53.3512 24.0585 54.8872 26.4017 56.4792 28.3301C54.45 30.1575 53.0261 32.5904 52.3198 34.5412C52.2077 34.8215 52.3758 35.0121 52.5328 35.0121H54.9208C55.2684 35.0121 55.4254 34.8888 55.5823 34.5412C56.2326 33.1062 57.1968 31.4581 58.4524 30.1239C59.6072 31.2338 60.6162 32.9268 61.2665 34.5412C61.4459 34.9897 61.6589 35.0121 61.928 35.0121H64.5403C65.0336 35.0121 65.0784 34.743 64.9887 34.5076C63.9909 31.8953 61.8719 29.2158 60.6835 28.0834C61.771 26.9062 63.7555 24.6527 64.6187 22.0853C64.7533 21.7041 64.5066 21.6144 64.316 21.6144H62.1298C61.8607 21.6144 61.6813 21.7041 61.4907 22.0853ZM94.4454 36.003C94.538 35.9001 94.5688 35.4269 94.5688 35.3549C94.5688 33.7761 93.4427 31.48 91.5183 29.2226C91.6434 28.8773 91.7616 28.5272 91.8727 28.1728C93.9221 30.604 95.0729 33.1073 95.0729 34.7377C95.0729 34.9332 95.042 35.2521 94.9391 35.4269C95.0729 35.2624 95.186 35.1183 95.258 35.0155C95.394 34.8251 95.3862 34.4588 95.3824 34.2831C95.3821 34.2677 95.3818 34.2538 95.3816 34.2415C95.3815 34.235 95.3815 34.2289 95.3815 34.2234C95.3815 32.5886 94.1928 30.007 92.0692 27.515C92.174 27.1461 92.2711 26.7731 92.36 26.3965C94.5364 28.9034 95.8135 31.6237 95.8135 33.6885C95.8135 33.8223 95.7826 34.1411 95.6695 34.3983L95.7046 34.3437L95.7051 34.343C95.7896 34.2116 95.8829 34.0665 95.9369 33.9765C96.0706 33.74 96.0809 33.3696 96.0809 33.1639C96.0809 31.0126 94.7629 28.2215 92.5169 25.6871C92.8538 24.0556 93.0369 22.3658 93.0369 20.6659C93.0369 18.5366 92.3477 17.2302 92.1214 16.9833C91.9671 16.8908 91.8333 16.8085 91.6688 16.6953C91.8539 16.8599 92.5843 18.1663 92.5843 20.1927C92.5843 21.9407 92.4123 23.628 92.0985 25.2294C91.8701 24.9872 91.6332 24.7479 91.3883 24.5123C91.696 22.9952 91.8642 21.4392 91.8642 19.8841C91.8642 18.084 91.2573 16.5513 91.0001 16.2941C90.8458 16.2324 90.6607 16.1398 90.5475 16.0781C90.7121 16.2427 91.4219 17.5491 91.4219 19.699C91.4219 21.2047 91.2636 22.6897 90.9771 24.1275C90.7307 23.9031 90.4768 23.6825 90.2157 23.4667C90.5217 21.983 90.6915 20.465 90.6915 18.948C90.6915 17.2199 90.1772 16.0678 89.9303 15.8004C89.7863 15.7387 89.6012 15.6667 89.4572 15.6152C89.8275 15.965 90.2698 17.1788 90.2698 18.7732C90.2698 20.2644 90.1083 21.7301 89.8206 23.148C86.7772 20.7529 82.8321 19.0097 78.4602 19.0097C76.1663 19.0097 75.2508 19.5344 74.8497 19.8224C74.7773 19.9165 74.6692 20.0717 74.5685 20.2164L74.5684 20.2167C74.526 20.2775 74.485 20.3364 74.4485 20.3881C74.788 20.0692 75.9915 19.4829 78.1208 19.4829C82.5692 19.4829 86.5935 21.3226 89.6761 23.8114C89.5918 24.1734 89.4995 24.5319 89.3998 24.8867C86.344 22.3589 82.2615 20.3984 77.4933 20.3984C75.2714 20.3984 74.3148 20.9333 73.9239 21.2522C73.9239 21.2419 73.677 21.6739 73.6256 21.8179C73.9136 21.6019 74.9217 20.9025 77.0613 20.9025C81.9262 20.9025 86.1059 22.93 89.2109 25.5257C89.0997 25.8842 88.9812 26.2385 88.8558 26.588C85.647 23.894 81.3462 21.7562 76.6395 21.7562C74.4074 21.7562 73.4301 22.538 73.1833 22.7437C73.1436 22.8707 73.0917 22.9976 73.0417 23.1198L73.0416 23.12C73.0347 23.1369 73.0278 23.1537 73.021 23.1705C73.0133 23.1895 73.0056 23.2084 72.9981 23.2272L73.0005 23.2254C73.2516 23.037 74.3009 22.25 76.4132 22.25C81.0309 22.25 85.3816 24.4449 88.6347 27.1821C86.1601 33.5922 81.4671 38.3006 78.7695 38.6158C78.9135 38.7083 79.037 38.7701 79.181 38.8421C82.6161 38.107 86.7652 33.4234 89.0251 27.5177C89.2864 27.7472 89.5399 27.9799 89.7852 28.215C87.5253 34.0576 83.3283 38.4624 79.7982 39.1301C79.8284 39.1433 79.8575 39.1561 79.8858 39.1687C80.0121 39.2244 80.1229 39.2732 80.2405 39.3153C84.1495 38.5555 88.0493 34.1743 90.1901 28.6124C90.44 28.8638 90.6805 29.1172 90.911 29.3715C88.7558 34.9802 84.8255 38.9003 80.9605 39.593C81.0419 39.6174 81.112 39.6402 81.1791 39.662C81.2817 39.6954 81.3773 39.7265 81.4954 39.7576C85.5006 39.1844 89.2141 35.1374 91.2973 29.8095C93.1758 31.9987 94.2911 34.2076 94.2911 35.7355C94.2911 35.9001 94.2602 36.147 94.1779 36.3013C94.2079 36.268 94.2378 36.2358 94.2674 36.204L94.2679 36.2035C94.3297 36.1371 94.3899 36.0724 94.4454 36.003ZM91.1297 28.7793C91.2529 28.4317 91.3693 28.078 91.4786 27.7187C91.2501 27.4628 91.0117 27.2085 90.7637 26.9567C90.6532 27.3145 90.5352 27.6686 90.4103 28.0186C90.6598 28.2703 90.8997 28.5242 91.1297 28.7793ZM90.0064 27.6211C90.1317 27.2713 90.25 26.9168 90.3607 26.5581C90.1153 26.3216 89.8613 26.0879 89.5991 25.8581C89.4883 26.2163 89.3701 26.5712 89.2451 26.9222C89.5069 27.152 89.7608 27.3853 90.0064 27.6211ZM89.7888 25.2163C90.0511 25.4439 90.3053 25.6755 90.5511 25.91C90.6521 25.5481 90.7453 25.1822 90.8301 24.8129C90.5836 24.5831 90.3295 24.3571 90.0681 24.1356C89.9828 24.4984 89.8895 24.8588 89.7888 25.2163ZM91.2379 25.2033C91.1517 25.5738 91.0574 25.9415 90.9553 26.306C91.2027 26.5547 91.4408 26.8061 91.6692 27.0591C91.7703 26.6907 91.8637 26.3167 91.9492 25.9376C91.7207 25.6899 91.4835 25.4448 91.2379 25.2033Z" fill="#090909"/>
</svg>
