<svg width="1556" height="923" viewBox="0 0 1556 923" fill="none" xmlns="http://www.w3.org/2000/svg">
<g filter="url(#filter0_ii_180_20760)">
<path fill-rule="evenodd" clip-rule="evenodd" d="M1394.32 66.7728C1393.93 64.7873 1393.59 63.0956 1390.22 63.959C1005.25 163.306 567.508 421.849 479.25 691.878L478.316 694.586L477.662 694.772C476.075 697.293 473.179 698.881 470.004 699.161C457.209 700.375 436.195 679.646 427.883 665.454C421.345 654.249 421.812 646.78 423.773 642.205V641.644L424.894 640.151C434.981 623.624 489.056 531.747 524.453 454.529C504.28 465.267 480.838 478.712 455.248 493.932C454.734 495.286 454.22 496.616 453.707 497.947C453.193 499.277 452.679 500.608 452.165 501.962C412.94 602.335 336.543 785.342 270.699 872.551C247.631 902.99 228.018 919.049 210.833 921.57C206.911 922.13 203.081 922.504 199.346 922.784C164.883 924.838 139.106 912.233 122.855 885.156C100.254 847.621 98.1056 786.276 107.912 716.621C35.064 764.801 28.7132 768.535 25.6311 768.816C13.4898 769.936 5.83144 746.873 2.09564 734.642C0.788115 730.534 -2.94768 718.209 4.52391 712.98L4.89749 712.7L5.36446 712.513C42.3488 695.706 80.4539 676.939 118.559 657.051C130.317 602.379 147.577 545.377 166.705 492.472C166.681 492.507 166.657 492.531 166.657 492.531C134.343 544.912 111.274 635.482 110.714 639.404C108.846 652.569 47.9525 670.963 44.2167 666.388C41.8819 663.493 40.8545 659.665 41.5083 655.277C50.9412 615.034 114.169 500.374 221.2 363.493C231.473 350.421 241.934 337.442 252.581 324.65C270.979 302.522 289.939 280.766 309.738 259.851C337.85 230.159 367.363 201.214 399.958 176.284C419.571 161.345 441.425 145.378 466.081 140.243C466.922 140.056 467.762 139.963 468.696 139.87C494.006 138.376 540.797 181.606 544.159 228.759C545.187 243.231 512.499 342.951 472.526 449.487C473.926 448.554 475.327 447.62 476.728 446.78C507.955 426.72 525.9 414.221 536.852 406.592L536.854 406.591C541.296 403.497 544.588 401.204 547.148 399.534C547.335 398.787 547.615 398.04 547.895 397.293C548.923 394.212 551.724 392.344 555.087 392.064H556.114C556.207 391.784 556.301 391.691 556.394 391.691C556.954 391.877 557.7 392.064 558.447 392.25L558.449 392.251C561.904 392.718 566.107 394.305 570.497 396.453C579.276 400.281 588.709 406.163 592.631 414.193C592.695 414.352 592.748 414.512 592.797 414.671C592.82 414.745 592.843 414.819 592.865 414.893C592.935 415.127 593.005 415.36 593.098 415.594C593.098 415.687 593.192 415.874 593.285 415.967C595.246 420.542 594.032 423.717 592.818 425.398L591.791 427.919H590.296C574.046 443.418 556.674 473.11 540.61 507.657C787.733 249.767 1094.54 80.579 1456.91 0.186742L1457.65 0L1458.5 0.0933708C1476.43 1.68068 1490.53 43.3241 1483.34 53.4081C1478.01 60.8778 1428.61 69.1878 1400.78 71.3353C1395.3 71.7871 1394.77 69.0814 1394.32 66.7728ZM256.97 409.244C256.597 410.925 255.663 413.073 249.032 426.985C209.899 509.431 183.188 576.845 166.19 631.934C247.724 587.676 327.297 540.244 394.354 498.694C416.022 447.34 434.514 398.32 447.683 356.303C484.387 239.59 472.152 209.151 461.598 201.401C461.225 201.027 459.824 200.374 456.462 200.561C432.553 202.055 357.463 246.686 273.408 343.325C264.162 353.876 254.916 365.08 245.576 376.845C243.948 378.96 242.321 381.044 240.675 383.151L240.669 383.159C239.483 384.677 238.288 386.207 237.077 387.769C244.269 389.917 250.339 394.212 253.608 398.413C256.41 402.055 257.531 405.696 256.97 409.244ZM183.655 861.439C198.972 860.412 243.428 804.39 307.777 681.887C331.313 637.069 354.194 589.73 375.021 543.232C297.971 591.504 214.849 646.033 150.874 688.33C125.937 798.788 149.566 844.259 181.881 861.159C182.348 861.439 183.001 861.533 183.655 861.439ZM990.68 589.637C988.812 590.758 986.85 591.504 984.702 591.785C973.495 593.092 955.376 581.794 949.025 569.842L947.905 567.788L948.558 565.267C954.442 544.352 995.536 486.649 1036.44 432.4C997.778 459.758 956.777 491.037 925.023 520.636C904.663 553.969 887.572 585.902 881.034 607.004L880.287 609.525L878.139 610.832C875.524 612.419 872.442 613.447 869.173 613.82C853.669 615.594 833.589 603.456 825.277 591.504C820.327 584.315 820.608 578.713 821.728 575.258L822.008 574.324L822.662 573.484C825.102 569.982 830.631 562.185 838.231 551.466L838.235 551.46C855.36 527.306 883 488.322 909.519 450.234C833.776 512.046 753.643 593.652 726.839 630.814L725.718 632.307L723.944 632.868C722.543 633.335 721.142 633.615 719.741 633.801C699.288 636.229 683.037 615.501 678.647 605.043C677.153 602.242 676.219 599.254 676.219 596.36V596.173V595.893C677.527 582.634 685.932 563.867 697.793 543.138C649.508 597.2 594.032 654.903 562.464 658.638C550.603 660.132 541.544 654.997 536.407 643.885C532.858 636.322 525.76 601.308 649.695 490.477C709.094 437.349 760.835 393.465 769.054 393.278C777.272 393.091 803.61 398.04 803.61 398.04C803.703 398.133 803.703 398.133 803.796 398.133C827.052 371.149 830.227 370.682 832.469 370.402L833.683 370.216C833.683 370.216 859.553 374.23 861.047 382.54C861.664 386.005 849.228 399.709 831.303 419.462L831.302 419.463C805.752 447.617 769.051 488.061 743.09 528.666C738.327 536.135 734.404 543.138 731.042 549.674C743.003 539.105 755.984 527.739 768.852 516.472L768.86 516.465L768.879 516.448L768.885 516.443L768.919 516.413C787.177 500.427 805.205 484.642 819.767 471.616C883.836 414.287 971.16 347.9 978.725 342.578C980.5 341.271 982.554 340.524 984.702 340.243L987.504 338.656C987.554 338.669 987.653 338.693 987.798 338.727C991.703 339.651 1028.77 348.416 1025.98 377.498C1021.22 381.327 1004.69 402.615 984.329 431.373C1039.62 383.568 1096.5 337.816 1119.84 325.491C1120.78 324.278 1121.6 323.233 1122.29 322.359L1122.29 322.355C1123.45 320.876 1124.22 319.891 1124.51 319.422L1130.59 317.087L1130.68 317.118L1130.69 317.121L1130.69 317.121C1132.93 317.847 1162.34 327.368 1157.76 350.514L1157.67 350.608V350.794L1157.02 353.502L1155.24 354.529C1094.25 410.999 1029.3 523.608 1002.82 569.498C995.813 581.654 991.501 589.129 990.68 589.637ZM1316.07 319.701L1317.84 318.301L1318.12 316.06C1318.78 310.925 1317.28 306.163 1313.64 302.334C1300.94 288.516 1264.14 288.889 1259.94 288.982H1259.19L1258.54 289.169C1243.69 293.464 1059.42 503.549 1042.7 549.58L1042.65 549.733C1041.85 552.027 1039.6 558.463 1042.79 563.026C1050.27 573.577 1077.07 575.257 1089.77 572.83C1095.36 571.731 1100.23 569.644 1103.5 568.243L1103.69 568.161C1104.02 568.013 1104.4 567.85 1104.74 567.702C1105 567.591 1105.24 567.488 1105.43 567.406C1105.63 567.32 1105.78 567.256 1105.84 567.228C1106.25 567.138 1106.59 566.514 1107.49 564.884C1111.27 558.027 1124.86 533.365 1194.65 455.743C1140.58 554.809 998.992 816.901 995.817 823.437C993.894 827.318 988.066 833.948 981.527 841.387C971.233 853.096 959.176 866.813 957.805 874.978L957.244 878.246L959.766 880.207C964.156 883.568 986.477 900.468 1000.58 897.76C1001.51 897.574 1002.35 897.294 1003.19 897.014L1003.19 897.013C1008.24 895.053 1015.52 882.448 1087.34 742.671C1107.98 702.622 1130.31 657.963 1152.77 613.054L1152.77 613.043C1220.36 477.871 1289.08 340.446 1316.07 319.701ZM1495.67 351.654C1515.89 336.031 1532.04 323.555 1540.5 317.18C1564.41 312.792 1554.79 345.098 1549.93 349.02C1478.86 406.443 1320.55 525.584 1303.65 532.961C1298.04 535.388 1257.32 538.003 1246.77 523.343C1219.03 450.514 1385.46 280.579 1413.85 270.495C1428.14 265.36 1480.91 276.191 1480.54 283.193C1480.16 290.196 1341.85 461.438 1306.45 457.423C1301.5 462.652 1282.82 501.961 1287.3 504.669C1293.24 508.042 1421.7 408.801 1495.67 351.654Z" fill="#DFE2E6"/>
</g>
<defs>
<filter id="filter0_ii_180_20760" x="0" y="0" width="1556" height="924" filterUnits="userSpaceOnUse" color-interpolation-filters="sRGB">
<feFlood flood-opacity="0" result="BackgroundImageFix"/>
<feBlend mode="normal" in="SourceGraphic" in2="BackgroundImageFix" result="shape"/>
<feColorMatrix in="SourceAlpha" type="matrix" values="0 0 0 0 0 0 0 0 0 0 0 0 0 0 0 0 0 0 127 0" result="hardAlpha"/>
<feOffset dy="1"/>
<feGaussianBlur stdDeviation="1.5"/>
<feComposite in2="hardAlpha" operator="arithmetic" k2="-1" k3="1"/>
<feColorMatrix type="matrix" values="0 0 0 0 0.160972 0 0 0 0 0.207569 0 0 0 0 0.254167 0 0 0 0.2 0"/>
<feBlend mode="normal" in2="shape" result="effect1_innerShadow_180_20760"/>
<feColorMatrix in="SourceAlpha" type="matrix" values="0 0 0 0 0 0 0 0 0 0 0 0 0 0 0 0 0 0 127 0" result="hardAlpha"/>
<feOffset dy="1"/>
<feGaussianBlur stdDeviation="0.5"/>
<feComposite in2="hardAlpha" operator="arithmetic" k2="-1" k3="1"/>
<feColorMatrix type="matrix" values="0 0 0 0 0.099375 0 0 0 0 0.105937 0 0 0 0 0.1125 0 0 0 0.08 0"/>
<feBlend mode="normal" in2="effect1_innerShadow_180_20760" result="effect2_innerShadow_180_20760"/>
</filter>
</defs>
</svg>
